<svg width="453" height="453" viewBox="0 0 453 453" fill="none" xmlns="http://www.w3.org/2000/svg">
<circle cx="226.5" cy="226.5" r="72.0998" stroke="#FF4242" stroke-opacity="0.34" stroke-width="5"/>
<circle cx="226.5" cy="226.5" r="143.662" stroke="#FF4242" stroke-opacity="0.21" stroke-width="5"/>
<circle cx="226.5" cy="226.5" r="224" stroke="#FF4242" stroke-opacity="0.06" stroke-width="5"/>
<path d="M70.1931 253.725C73.1897 253.725 75.5097 254.556 77.1531 256.219C78.7964 257.862 79.6181 260.221 79.6181 263.295C79.6181 266.349 78.7964 268.708 77.1531 270.371C75.5097 272.033 73.1897 272.865 70.1931 272.865H62.7981L62.7981 253.725H70.1931ZM69.9901 269.675C71.8074 269.675 73.1704 269.133 74.0791 268.051C75.0071 266.949 75.4711 265.363 75.4711 263.295C75.4711 261.226 75.0071 259.65 74.0791 258.568C73.1704 257.466 71.8074 256.915 69.9901 256.915H66.8001L66.8001 269.675H69.9901ZM83.5859 272.865L83.5859 258.365H87.0369L87.2979 261.207C87.6845 260.201 88.2452 259.428 88.9799 258.887C89.7339 258.345 90.6715 258.075 91.7929 258.075C92.1215 258.075 92.4212 258.104 92.6919 258.162C92.9625 258.22 93.1849 258.297 93.3589 258.394L92.8949 261.729C92.7015 261.651 92.4599 261.593 92.1699 261.555C91.8992 261.516 91.5415 261.497 91.0969 261.497C90.5169 261.497 89.9562 261.642 89.4149 261.932C88.8735 262.202 88.4289 262.628 88.0809 263.208C87.7329 263.768 87.5589 264.484 87.5589 265.354L87.5589 272.865H83.5859ZM102.584 258.075C104.053 258.075 105.339 258.374 106.441 258.974C107.562 259.573 108.432 260.433 109.051 261.555C109.689 262.676 110.008 264.029 110.008 265.615C110.008 267.181 109.689 268.534 109.051 269.675C108.432 270.796 107.562 271.656 106.441 272.256C105.339 272.855 104.053 273.155 102.584 273.155C101.134 273.155 99.8484 272.855 98.727 272.256C97.6057 271.656 96.726 270.796 96.088 269.675C95.4694 268.534 95.16 267.181 95.16 265.615C95.16 264.029 95.4694 262.676 96.088 261.555C96.726 260.433 97.6057 259.573 98.727 258.974C99.8484 258.374 101.134 258.075 102.584 258.075ZM102.584 261.033C101.849 261.033 101.221 261.207 100.699 261.555C100.196 261.883 99.8097 262.386 99.539 263.063C99.2684 263.739 99.133 264.59 99.133 265.615C99.133 266.639 99.2684 267.49 99.539 268.167C99.8097 268.843 100.196 269.356 100.699 269.704C101.221 270.032 101.849 270.197 102.584 270.197C103.299 270.197 103.908 270.032 104.411 269.704C104.933 269.356 105.329 268.843 105.6 268.167C105.871 267.49 106.006 266.639 106.006 265.615C106.006 264.59 105.871 263.739 105.6 263.063C105.329 262.386 104.933 261.883 104.411 261.555C103.908 261.207 103.299 261.033 102.584 261.033ZM113.767 278.955L113.767 258.365H117.334L117.595 262.976L117.102 262.454C117.276 261.603 117.595 260.849 118.059 260.192C118.543 259.534 119.152 259.022 119.886 258.655C120.621 258.268 121.443 258.075 122.351 258.075C123.531 258.075 124.584 258.374 125.512 258.974C126.44 259.573 127.165 260.433 127.687 261.555C128.229 262.657 128.499 264 128.499 265.586C128.499 267.171 128.229 268.534 127.687 269.675C127.146 270.796 126.402 271.656 125.454 272.256C124.526 272.855 123.463 273.155 122.264 273.155C120.988 273.155 119.925 272.797 119.074 272.082C118.243 271.366 117.673 270.467 117.363 269.385L117.74 268.776L117.74 278.955H113.767ZM121.104 270.11C122.168 270.11 122.999 269.733 123.598 268.979C124.217 268.205 124.526 267.084 124.526 265.615C124.526 264.145 124.227 263.034 123.627 262.28C123.047 261.506 122.226 261.12 121.162 261.12C120.486 261.12 119.886 261.303 119.364 261.671C118.862 262.019 118.465 262.531 118.175 263.208C117.885 263.865 117.74 264.667 117.74 265.615C117.74 266.523 117.876 267.326 118.146 268.022C118.417 268.698 118.804 269.22 119.306 269.588C119.828 269.936 120.428 270.11 121.104 270.11ZM149.948 263.614C149.948 262.782 149.707 262.135 149.223 261.671C148.759 261.207 148.141 260.975 147.367 260.975C146.652 260.975 146.024 261.158 145.482 261.526C144.941 261.893 144.545 262.502 144.293 263.353L140.9 262.309C141.229 261.033 141.944 260.008 143.046 259.235C144.168 258.461 145.666 258.075 147.541 258.075C148.817 258.075 149.929 258.278 150.876 258.684C151.824 259.07 152.558 259.66 153.08 260.453C153.622 261.245 153.892 262.241 153.892 263.44L153.892 269.327C153.892 270.061 154.24 270.429 154.936 270.429C155.265 270.429 155.574 270.38 155.864 270.284L155.632 272.749C155.13 273 154.501 273.126 153.747 273.126C153.071 273.126 152.462 273.01 151.92 272.778C151.379 272.546 150.954 272.198 150.644 271.734C150.335 271.25 150.18 270.651 150.18 269.936L150.18 269.82L150.876 269.704C150.76 270.438 150.441 271.067 149.919 271.589C149.397 272.091 148.759 272.478 148.005 272.749C147.271 273.019 146.507 273.155 145.714 273.155C144.728 273.155 143.878 273.01 143.162 272.72C142.447 272.41 141.896 271.966 141.509 271.386C141.123 270.806 140.929 270.09 140.929 269.24C140.929 268.157 141.277 267.277 141.973 266.601C142.669 265.905 143.665 265.431 144.96 265.18L150.412 264.078L150.383 266.543L146.903 267.239C146.246 267.374 145.743 267.558 145.395 267.79C145.067 268.002 144.902 268.36 144.902 268.863C144.902 269.346 145.076 269.713 145.424 269.965C145.792 270.216 146.227 270.342 146.729 270.342C147.135 270.342 147.532 270.293 147.918 270.197C148.305 270.1 148.653 269.945 148.962 269.733C149.272 269.52 149.513 269.23 149.687 268.863C149.861 268.495 149.948 268.051 149.948 267.529L149.948 263.614ZM158.771 272.865L158.771 258.365H162.338L162.57 262.715L162.077 262.251C162.309 261.303 162.676 260.53 163.179 259.931C163.681 259.312 164.29 258.848 165.006 258.539C165.74 258.229 166.543 258.075 167.413 258.075C168.418 258.075 169.307 258.268 170.081 258.655C170.873 259.041 171.492 259.631 171.937 260.424C172.401 261.197 172.633 262.173 172.633 263.353L172.633 272.865H168.66L168.66 264.484C168.66 263.246 168.418 262.396 167.935 261.932C167.451 261.448 166.823 261.207 166.05 261.207C165.508 261.207 164.977 261.342 164.455 261.613C163.952 261.864 163.536 262.28 163.208 262.86C162.898 263.44 162.744 264.213 162.744 265.18L162.744 272.865H158.771ZM188.461 256.277C187.63 256.277 187.011 256.103 186.605 255.755C186.199 255.387 185.996 254.856 185.996 254.16C185.996 253.444 186.199 252.913 186.605 252.565C187.011 252.197 187.63 252.014 188.461 252.014C189.292 252.014 189.911 252.197 190.317 252.565C190.723 252.913 190.926 253.444 190.926 254.16C190.926 254.856 190.723 255.387 190.317 255.755C189.911 256.103 189.292 256.277 188.461 256.277ZM190.433 258.365L190.433 272.865H186.46L186.46 258.365H190.433ZM195.08 272.865L195.08 258.365H198.647L198.792 260.975C199.275 260.008 199.932 259.283 200.764 258.8C201.614 258.316 202.552 258.075 203.577 258.075C204.621 258.075 205.558 258.316 206.39 258.8C207.24 259.283 207.878 259.998 208.304 260.946C208.613 260.308 209.029 259.776 209.551 259.351C210.073 258.925 210.653 258.606 211.291 258.394C211.929 258.181 212.576 258.075 213.234 258.075C214.181 258.075 215.041 258.268 215.815 258.655C216.607 259.041 217.236 259.621 217.7 260.395C218.164 261.168 218.396 262.154 218.396 263.353L218.396 272.865H214.423L214.423 264.136C214.423 263.072 214.191 262.318 213.727 261.874C213.263 261.429 212.663 261.207 211.929 261.207C211.349 261.207 210.807 261.352 210.305 261.642C209.821 261.932 209.435 262.367 209.145 262.947C208.874 263.507 208.739 264.213 208.739 265.064L208.739 272.865H204.766L204.766 264.136C204.766 263.072 204.524 262.318 204.041 261.874C203.577 261.429 202.977 261.207 202.243 261.207C201.74 261.207 201.237 261.342 200.735 261.613C200.251 261.883 199.845 262.309 199.517 262.889C199.207 263.469 199.053 264.232 199.053 265.18L199.053 272.865H195.08ZM231.194 263.614C231.194 262.782 230.952 262.135 230.469 261.671C230.005 261.207 229.386 260.975 228.613 260.975C227.897 260.975 227.269 261.158 226.728 261.526C226.186 261.893 225.79 262.502 225.539 263.353L222.146 262.309C222.474 261.033 223.19 260.008 224.292 259.235C225.413 258.461 226.911 258.075 228.787 258.075C230.063 258.075 231.174 258.278 232.122 258.684C233.069 259.07 233.804 259.66 234.326 260.453C234.867 261.245 235.138 262.241 235.138 263.44L235.138 269.327C235.138 270.061 235.486 270.429 236.182 270.429C236.51 270.429 236.82 270.38 237.11 270.284L236.878 272.749C236.375 273 235.747 273.126 234.993 273.126C234.316 273.126 233.707 273.01 233.166 272.778C232.624 272.546 232.199 272.198 231.89 271.734C231.58 271.25 231.426 270.651 231.426 269.936L231.426 269.82L232.122 269.704C232.006 270.438 231.687 271.067 231.165 271.589C230.643 272.091 230.005 272.478 229.251 272.749C228.516 273.019 227.752 273.155 226.96 273.155C225.974 273.155 225.123 273.01 224.408 272.72C223.692 272.41 223.141 271.966 222.755 271.386C222.368 270.806 222.175 270.09 222.175 269.24C222.175 268.157 222.523 267.277 223.219 266.601C223.915 265.905 224.91 265.431 226.206 265.18L231.658 264.078L231.629 266.543L228.149 267.239C227.491 267.374 226.989 267.558 226.641 267.79C226.312 268.002 226.148 268.36 226.148 268.863C226.148 269.346 226.322 269.713 226.67 269.965C227.037 270.216 227.472 270.342 227.975 270.342C228.381 270.342 228.777 270.293 229.164 270.197C229.55 270.1 229.898 269.945 230.208 269.733C230.517 269.52 230.759 269.23 230.933 268.863C231.107 268.495 231.194 268.051 231.194 267.529L231.194 263.614ZM253.47 254.914L253.934 257.756C253.857 257.756 253.77 257.756 253.673 257.756C253.596 257.736 253.509 257.727 253.412 257.727C252.542 257.727 251.875 257.93 251.411 258.336C250.966 258.722 250.744 259.264 250.744 259.96L249.12 259.293C249.12 258.519 249.275 257.804 249.584 257.147C249.893 256.47 250.348 255.929 250.947 255.523C251.566 255.117 252.3 254.914 253.151 254.914C253.19 254.914 253.238 254.914 253.296 254.914C253.354 254.914 253.412 254.914 253.47 254.914ZM248.714 270.139C250.28 270.139 251.488 270.477 252.339 271.154C253.19 271.83 253.615 272.778 253.615 273.996C253.615 275.098 253.296 276.026 252.658 276.78C252.02 277.553 251.121 278.133 249.961 278.52C248.82 278.906 247.496 279.1 245.988 279.1C243.494 279.1 241.667 278.752 240.507 278.056C239.366 277.36 238.796 276.451 238.796 275.33C238.796 274.537 239.096 273.87 239.695 273.329C240.314 272.787 241.329 272.488 242.74 272.43L242.595 272.894C241.59 272.72 240.816 272.391 240.275 271.908C239.753 271.405 239.492 270.719 239.492 269.849C239.492 268.959 239.83 268.234 240.507 267.674C241.203 267.094 242.141 266.755 243.32 266.659L245.06 267.471H244.654C243.823 267.529 243.233 267.703 242.885 267.993C242.556 268.263 242.392 268.573 242.392 268.921C242.392 269.327 242.547 269.636 242.856 269.849C243.185 270.042 243.649 270.139 244.248 270.139L248.714 270.139ZM246.017 276.374C247.022 276.374 247.844 276.287 248.482 276.113C249.139 275.939 249.623 275.716 249.932 275.446C250.261 275.175 250.425 274.875 250.425 274.547C250.425 274.179 250.28 273.88 249.99 273.648C249.7 273.435 249.178 273.329 248.424 273.329L243.523 273.329C243.059 273.329 242.672 273.445 242.363 273.677C242.073 273.909 241.928 274.228 241.928 274.634C241.928 275.175 242.286 275.6 243.001 275.91C243.736 276.219 244.741 276.374 246.017 276.374ZM246.046 258.075C247.399 258.075 248.569 258.278 249.555 258.684C250.56 259.07 251.324 259.631 251.846 260.366C252.387 261.1 252.658 261.98 252.658 263.005C252.658 264.01 252.387 264.88 251.846 265.615C251.324 266.349 250.56 266.92 249.555 267.326C248.569 267.712 247.399 267.906 246.046 267.906C243.9 267.906 242.257 267.471 241.116 266.601C239.975 265.711 239.405 264.513 239.405 263.005C239.405 261.98 239.676 261.1 240.217 260.366C240.758 259.631 241.522 259.07 242.508 258.684C243.494 258.278 244.673 258.075 246.046 258.075ZM246.046 260.569C245.273 260.569 244.635 260.781 244.132 261.207C243.629 261.632 243.378 262.222 243.378 262.976C243.378 263.73 243.629 264.329 244.132 264.774C244.635 265.199 245.273 265.412 246.046 265.412C246.819 265.412 247.448 265.199 247.931 264.774C248.434 264.329 248.685 263.73 248.685 262.976C248.685 262.222 248.434 261.632 247.931 261.207C247.448 260.781 246.819 260.569 246.046 260.569ZM263.18 273.155C261.653 273.155 260.319 272.855 259.178 272.256C258.057 271.656 257.187 270.796 256.568 269.675C255.949 268.553 255.64 267.2 255.64 265.615C255.64 264.029 255.949 262.676 256.568 261.555C257.187 260.433 258.047 259.573 259.149 258.974C260.27 258.374 261.546 258.075 262.977 258.075C264.446 258.075 265.693 258.374 266.718 258.974C267.743 259.554 268.526 260.356 269.067 261.381C269.608 262.386 269.879 263.536 269.879 264.832C269.879 265.218 269.869 265.586 269.85 265.934C269.831 266.282 269.802 266.591 269.763 266.862H258.192L258.192 264.107H268.023L266.109 264.803C266.109 263.585 265.829 262.647 265.268 261.99C264.727 261.332 263.953 261.004 262.948 261.004C262.213 261.004 261.575 261.178 261.034 261.526C260.512 261.874 260.116 262.396 259.845 263.092C259.574 263.768 259.439 264.629 259.439 265.673C259.439 266.697 259.584 267.548 259.874 268.225C260.183 268.882 260.609 269.375 261.15 269.704C261.711 270.032 262.378 270.197 263.151 270.197C264.002 270.197 264.688 270.032 265.21 269.704C265.732 269.375 266.138 268.921 266.428 268.341L269.589 269.559C269.28 270.313 268.806 270.96 268.168 271.502C267.549 272.043 266.805 272.459 265.935 272.749C265.084 273.019 264.166 273.155 263.18 273.155ZM287.773 253.928L287.773 268.138C287.773 268.834 287.947 269.346 288.295 269.675C288.663 269.984 289.156 270.139 289.774 270.139C290.277 270.139 290.702 270.071 291.05 269.936C291.418 269.781 291.746 269.578 292.036 269.327L292.674 271.966C292.21 272.333 291.63 272.623 290.934 272.836C290.238 273.048 289.504 273.155 288.73 273.155C287.764 273.155 286.903 273.01 286.149 272.72C285.415 272.43 284.835 271.966 284.409 271.328C284.003 270.69 283.8 269.839 283.8 268.776L283.8 255.03L287.773 253.928ZM292.413 258.365L292.413 261.323H281.132L281.132 258.365H292.413ZM302.148 258.075C303.618 258.075 304.903 258.374 306.005 258.974C307.127 259.573 307.997 260.433 308.615 261.555C309.253 262.676 309.572 264.029 309.572 265.615C309.572 267.181 309.253 268.534 308.615 269.675C307.997 270.796 307.127 271.656 306.005 272.256C304.903 272.855 303.618 273.155 302.148 273.155C300.698 273.155 299.413 272.855 298.291 272.256C297.17 271.656 296.29 270.796 295.652 269.675C295.034 268.534 294.724 267.181 294.724 265.615C294.724 264.029 295.034 262.676 295.652 261.555C296.29 260.433 297.17 259.573 298.291 258.974C299.413 258.374 300.698 258.075 302.148 258.075ZM302.148 261.033C301.414 261.033 300.785 261.207 300.263 261.555C299.761 261.883 299.374 262.386 299.103 263.063C298.833 263.739 298.697 264.59 298.697 265.615C298.697 266.639 298.833 267.49 299.103 268.167C299.374 268.843 299.761 269.356 300.263 269.704C300.785 270.032 301.414 270.197 302.148 270.197C302.864 270.197 303.473 270.032 303.975 269.704C304.497 269.356 304.894 268.843 305.164 268.167C305.435 267.49 305.57 266.639 305.57 265.615C305.57 264.59 305.435 263.739 305.164 263.063C304.894 262.386 304.497 261.883 303.975 261.555C303.473 261.207 302.864 261.033 302.148 261.033ZM328.431 273.155C326.961 273.155 325.618 272.894 324.4 272.372C323.201 271.85 322.225 271.115 321.471 270.168L323.762 267.848C324.226 268.544 324.844 269.114 325.618 269.559C326.391 270.003 327.309 270.226 328.373 270.226C329.127 270.226 329.726 270.119 330.171 269.907C330.635 269.675 330.867 269.317 330.867 268.834C330.867 268.524 330.76 268.263 330.548 268.051C330.335 267.819 329.91 267.635 329.272 267.5L326.72 266.978C325.038 266.63 323.839 266.108 323.124 265.412C322.428 264.696 322.08 263.778 322.08 262.657C322.08 261.864 322.312 261.12 322.776 260.424C323.259 259.728 323.974 259.167 324.922 258.742C325.869 258.297 327.048 258.075 328.46 258.075C329.91 258.075 331.166 258.307 332.23 258.771C333.312 259.215 334.163 259.882 334.782 260.772L332.404 263.092C331.978 262.415 331.418 261.903 330.722 261.555C330.045 261.187 329.33 261.004 328.576 261.004C328.034 261.004 327.57 261.062 327.184 261.178C326.797 261.294 326.507 261.458 326.314 261.671C326.12 261.864 326.024 262.115 326.024 262.425C326.024 262.734 326.159 263.005 326.43 263.237C326.7 263.449 327.193 263.633 327.909 263.788L330.867 264.397C332.297 264.687 333.322 265.18 333.941 265.876C334.559 266.552 334.869 267.374 334.869 268.341C334.869 269.269 334.617 270.1 334.115 270.835C333.631 271.55 332.906 272.12 331.94 272.546C330.992 272.952 329.823 273.155 328.431 273.155ZM343.605 253.928L343.605 268.138C343.605 268.834 343.779 269.346 344.127 269.675C344.494 269.984 344.987 270.139 345.606 270.139C346.109 270.139 346.534 270.071 346.882 269.936C347.249 269.781 347.578 269.578 347.868 269.327L348.506 271.966C348.042 272.333 347.462 272.623 346.766 272.836C346.07 273.048 345.335 273.155 344.562 273.155C343.595 273.155 342.735 273.01 341.981 272.72C341.246 272.43 340.666 271.966 340.241 271.328C339.835 270.69 339.632 269.839 339.632 268.776L339.632 255.03L343.605 253.928ZM348.245 258.365L348.245 261.323H336.964L336.964 258.365H348.245ZM364.998 258.365L359.14 273.764C358.676 275.078 358.154 276.122 357.574 276.896C357.013 277.669 356.356 278.23 355.602 278.578C354.867 278.926 353.988 279.1 352.963 279.1C352.209 279.1 351.513 279.003 350.875 278.81C350.256 278.636 349.715 278.404 349.251 278.114L350.092 275.243C350.459 275.533 350.846 275.736 351.252 275.852C351.658 275.987 352.122 276.055 352.644 276.055C353.185 276.055 353.649 275.939 354.036 275.707C354.442 275.475 354.78 275.011 355.051 274.315L355.544 273.068L353.949 269.298L349.512 258.365H353.92L356.675 267.065L357.429 269.965L358.328 266.891L360.967 258.365H364.998ZM371.549 252.014L371.549 268.399C371.549 269.075 371.665 269.549 371.897 269.82C372.129 270.09 372.516 270.226 373.057 270.226C373.386 270.226 373.656 270.206 373.869 270.168C374.082 270.11 374.352 270.032 374.681 269.936L374.333 272.546C374.004 272.739 373.589 272.884 373.086 272.981C372.603 273.097 372.119 273.155 371.636 273.155C370.225 273.155 369.19 272.816 368.533 272.14C367.895 271.444 367.576 270.342 367.576 268.834L367.576 252.014H371.549ZM384.058 273.155C382.53 273.155 381.196 272.855 380.056 272.256C378.934 271.656 378.064 270.796 377.446 269.675C376.827 268.553 376.518 267.2 376.518 265.615C376.518 264.029 376.827 262.676 377.446 261.555C378.064 260.433 378.925 259.573 380.027 258.974C381.148 258.374 382.424 258.075 383.855 258.075C385.324 258.075 386.571 258.374 387.596 258.974C388.62 259.554 389.403 260.356 389.945 261.381C390.486 262.386 390.757 263.536 390.757 264.832C390.757 265.218 390.747 265.586 390.728 265.934C390.708 266.282 390.679 266.591 390.641 266.862H379.07L379.07 264.107H388.901L386.987 264.803C386.987 263.585 386.706 262.647 386.146 261.99C385.604 261.332 384.831 261.004 383.826 261.004C383.091 261.004 382.453 261.178 381.912 261.526C381.39 261.874 380.993 262.396 380.723 263.092C380.452 263.768 380.317 264.629 380.317 265.673C380.317 266.697 380.462 267.548 380.752 268.225C381.061 268.882 381.486 269.375 382.028 269.704C382.588 270.032 383.255 270.197 384.029 270.197C384.879 270.197 385.566 270.032 386.088 269.704C386.61 269.375 387.016 268.921 387.306 268.341L390.467 269.559C390.157 270.313 389.684 270.96 389.046 271.502C388.427 272.043 387.683 272.459 386.813 272.749C385.962 273.019 385.044 273.155 384.058 273.155Z" fill="#2C2C2C"/>
<path d="M240.373 199.395C239.09 192.883 233.371 187.995 226.5 187.995C221.045 187.995 216.308 191.09 213.948 195.62C208.267 196.224 203.85 201.037 203.85 206.87C203.85 213.117 208.927 218.195 215.175 218.195H239.713C244.922 218.195 249.15 213.967 249.15 208.757C249.15 203.774 245.281 199.735 240.373 199.395ZM230.275 204.982V212.532H222.725V204.982H217.063L226.5 195.545L235.938 204.982H230.275Z" fill="#FF4242"/>
</svg>
