<svg width="600" height="601" viewBox="0 0 600 601" fill="none" xmlns="http://www.w3.org/2000/svg">
<circle cx="300" cy="300.354" r="96.3077" stroke="#FF4242" stroke-opacity="0.34" stroke-width="5"/>
<circle cx="300" cy="300.354" r="191.092" stroke="#FF4242" stroke-opacity="0.21" stroke-width="5"/>
<circle cx="300" cy="300.354" r="297.5" stroke="#FF4242" stroke-opacity="0.06" stroke-width="5"/>
<g filter="url(#filter0_d)">
<rect x="177" y="380.354" width="246" height="80" rx="13" fill="#2C2C2C"/>
</g>
<path d="M227.02 420.33C228.121 420.536 229.027 421.086 229.736 421.982C230.445 422.878 230.8 423.905 230.8 425.062C230.8 426.108 230.539 427.032 230.016 427.834C229.512 428.618 228.775 429.234 227.804 429.682C226.833 430.13 225.685 430.354 224.36 430.354H215.932V410.81H223.996C225.321 410.81 226.46 411.025 227.412 411.454C228.383 411.884 229.111 412.481 229.596 413.246C230.1 414.012 230.352 414.88 230.352 415.85C230.352 416.989 230.044 417.941 229.428 418.706C228.831 419.472 228.028 420.013 227.02 420.33ZM219.852 418.874H223.436C224.369 418.874 225.088 418.669 225.592 418.258C226.096 417.829 226.348 417.222 226.348 416.438C226.348 415.654 226.096 415.048 225.592 414.618C225.088 414.189 224.369 413.974 223.436 413.974H219.852V418.874ZM223.8 427.162C224.752 427.162 225.489 426.938 226.012 426.49C226.553 426.042 226.824 425.408 226.824 424.586C226.824 423.746 226.544 423.093 225.984 422.626C225.424 422.141 224.668 421.898 223.716 421.898H219.852V427.162H223.8ZM237.844 417.25C238.348 416.429 239.002 415.785 239.804 415.318C240.626 414.852 241.559 414.618 242.604 414.618V418.734H241.568C240.336 418.734 239.403 419.024 238.768 419.602C238.152 420.181 237.844 421.189 237.844 422.626V430.354H233.924V414.842H237.844V417.25ZM252.133 430.606C250.639 430.606 249.295 430.28 248.101 429.626C246.906 428.954 245.963 428.012 245.273 426.798C244.601 425.585 244.265 424.185 244.265 422.598C244.265 421.012 244.61 419.612 245.301 418.398C246.01 417.185 246.971 416.252 248.185 415.598C249.398 414.926 250.751 414.59 252.245 414.59C253.738 414.59 255.091 414.926 256.305 415.598C257.518 416.252 258.47 417.185 259.161 418.398C259.87 419.612 260.225 421.012 260.225 422.598C260.225 424.185 259.861 425.585 259.132 426.798C258.423 428.012 257.453 428.954 256.221 429.626C255.007 430.28 253.645 430.606 252.133 430.606ZM252.133 427.19C252.842 427.19 253.505 427.022 254.121 426.686C254.755 426.332 255.259 425.809 255.633 425.118C256.006 424.428 256.193 423.588 256.193 422.598C256.193 421.124 255.801 419.994 255.017 419.21C254.251 418.408 253.309 418.006 252.189 418.006C251.069 418.006 250.126 418.408 249.361 419.21C248.614 419.994 248.241 421.124 248.241 422.598C248.241 424.073 248.605 425.212 249.333 426.014C250.079 426.798 251.013 427.19 252.133 427.19ZM284.604 414.842L280.068 430.354H275.84L273.012 419.518L270.184 430.354H265.928L261.364 414.842H265.34L268.084 426.658L271.052 414.842H275.196L278.108 426.63L280.852 414.842H284.604ZM292.661 430.606C291.392 430.606 290.253 430.382 289.245 429.934C288.237 429.468 287.434 428.842 286.837 428.058C286.258 427.274 285.941 426.406 285.885 425.454H289.833C289.908 426.052 290.197 426.546 290.701 426.938C291.224 427.33 291.868 427.526 292.633 427.526C293.38 427.526 293.958 427.377 294.369 427.078C294.798 426.78 295.013 426.397 295.013 425.93C295.013 425.426 294.752 425.053 294.229 424.81C293.725 424.549 292.913 424.269 291.793 423.97C290.636 423.69 289.684 423.401 288.937 423.102C288.209 422.804 287.574 422.346 287.033 421.73C286.51 421.114 286.249 420.284 286.249 419.238C286.249 418.38 286.492 417.596 286.977 416.886C287.481 416.177 288.19 415.617 289.105 415.206C290.038 414.796 291.13 414.59 292.381 414.59C294.229 414.59 295.704 415.057 296.805 415.99C297.906 416.905 298.513 418.146 298.625 419.714H294.873C294.817 419.098 294.556 418.613 294.089 418.258C293.641 417.885 293.034 417.698 292.269 417.698C291.56 417.698 291.009 417.829 290.617 418.09C290.244 418.352 290.057 418.716 290.057 419.182C290.057 419.705 290.318 420.106 290.841 420.386C291.364 420.648 292.176 420.918 293.277 421.198C294.397 421.478 295.321 421.768 296.049 422.066C296.777 422.365 297.402 422.832 297.925 423.466C298.466 424.082 298.746 424.904 298.765 425.93C298.765 426.826 298.513 427.629 298.009 428.338C297.524 429.048 296.814 429.608 295.881 430.018C294.966 430.41 293.893 430.606 292.661 430.606ZM316.403 422.262C316.403 422.822 316.365 423.326 316.291 423.774H304.951C305.044 424.894 305.436 425.772 306.127 426.406C306.817 427.041 307.667 427.358 308.675 427.358C310.131 427.358 311.167 426.733 311.783 425.482H316.011C315.563 426.976 314.704 428.208 313.435 429.178C312.165 430.13 310.607 430.606 308.759 430.606C307.265 430.606 305.921 430.28 304.727 429.626C303.551 428.954 302.627 428.012 301.955 426.798C301.301 425.585 300.975 424.185 300.975 422.598C300.975 420.993 301.301 419.584 301.955 418.37C302.608 417.157 303.523 416.224 304.699 415.57C305.875 414.917 307.228 414.59 308.759 414.59C310.233 414.59 311.549 414.908 312.707 415.542C313.883 416.177 314.788 417.082 315.423 418.258C316.076 419.416 316.403 420.75 316.403 422.262ZM312.343 421.142C312.324 420.134 311.96 419.332 311.251 418.734C310.541 418.118 309.673 417.81 308.647 417.81C307.676 417.81 306.855 418.109 306.183 418.706C305.529 419.285 305.128 420.097 304.979 421.142H312.343ZM338.004 410.81V413.974H329.856V418.986H336.1V422.094H329.856V430.354H325.936V410.81H338.004ZM342.772 412.994C342.081 412.994 341.502 412.78 341.036 412.35C340.588 411.902 340.364 411.352 340.364 410.698C340.364 410.045 340.588 409.504 341.036 409.074C341.502 408.626 342.081 408.402 342.772 408.402C343.462 408.402 344.032 408.626 344.48 409.074C344.946 409.504 345.18 410.045 345.18 410.698C345.18 411.352 344.946 411.902 344.48 412.35C344.032 412.78 343.462 412.994 342.772 412.994ZM344.704 414.842V430.354H340.784V414.842H344.704ZM352.497 409.634V430.354H348.577V409.634H352.497ZM370.79 422.262C370.79 422.822 370.752 423.326 370.678 423.774H359.338C359.431 424.894 359.823 425.772 360.514 426.406C361.204 427.041 362.054 427.358 363.062 427.358C364.518 427.358 365.554 426.733 366.17 425.482H370.398C369.95 426.976 369.091 428.208 367.822 429.178C366.552 430.13 364.994 430.606 363.146 430.606C361.652 430.606 360.308 430.28 359.114 429.626C357.938 428.954 357.014 428.012 356.342 426.798C355.688 425.585 355.361 424.185 355.361 422.598C355.361 420.993 355.688 419.584 356.342 418.37C356.995 417.157 357.91 416.224 359.086 415.57C360.262 414.917 361.615 414.59 363.146 414.59C364.62 414.59 365.936 414.908 367.094 415.542C368.27 416.177 369.175 417.082 369.81 418.258C370.463 419.416 370.79 420.75 370.79 422.262ZM366.73 421.142C366.711 420.134 366.347 419.332 365.638 418.734C364.928 418.118 364.06 417.81 363.034 417.81C362.063 417.81 361.242 418.109 360.57 418.706C359.916 419.285 359.515 420.097 359.366 421.142H366.73ZM379.587 430.606C378.317 430.606 377.179 430.382 376.171 429.934C375.163 429.468 374.36 428.842 373.763 428.058C373.184 427.274 372.867 426.406 372.811 425.454H376.759C376.833 426.052 377.123 426.546 377.627 426.938C378.149 427.33 378.793 427.526 379.559 427.526C380.305 427.526 380.884 427.377 381.295 427.078C381.724 426.78 381.939 426.397 381.939 425.93C381.939 425.426 381.677 425.053 381.155 424.81C380.651 424.549 379.839 424.269 378.719 423.97C377.561 423.69 376.609 423.401 375.863 423.102C375.135 422.804 374.5 422.346 373.959 421.73C373.436 421.114 373.175 420.284 373.175 419.238C373.175 418.38 373.417 417.596 373.903 416.886C374.407 416.177 375.116 415.617 376.031 415.206C376.964 414.796 378.056 414.59 379.307 414.59C381.155 414.59 382.629 415.057 383.731 415.99C384.832 416.905 385.439 418.146 385.551 419.714H381.799C381.743 419.098 381.481 418.613 381.015 418.258C380.567 417.885 379.96 417.698 379.195 417.698C378.485 417.698 377.935 417.829 377.543 418.09C377.169 418.352 376.983 418.716 376.983 419.182C376.983 419.705 377.244 420.106 377.767 420.386C378.289 420.648 379.101 420.918 380.203 421.198C381.323 421.478 382.247 421.768 382.975 422.066C383.703 422.365 384.328 422.832 384.851 423.466C385.392 424.082 385.672 424.904 385.691 425.93C385.691 426.826 385.439 427.629 384.935 428.338C384.449 429.048 383.74 429.608 382.807 430.018C381.892 430.41 380.819 430.606 379.587 430.606Z" fill="white"/>
<path d="M79.2048 266.214C82.2014 266.214 84.5214 267.046 86.1648 268.708C87.8081 270.352 88.6298 272.71 88.6298 275.784C88.6298 278.839 87.8081 281.198 86.1648 282.86C84.5214 284.523 82.2014 285.354 79.2048 285.354H71.8098L71.8098 266.214H79.2048ZM79.0018 282.164C80.8191 282.164 82.1821 281.623 83.0908 280.54C84.0188 279.438 84.4828 277.853 84.4828 275.784C84.4828 273.716 84.0188 272.14 83.0908 271.057C82.1821 269.955 80.8191 269.404 79.0018 269.404H75.8118L75.8118 282.164H79.0018ZM92.5976 285.354L92.5976 270.854H96.0486L96.3096 273.696C96.6962 272.691 97.2569 271.918 97.9916 271.376C98.7456 270.835 99.6832 270.564 100.805 270.564C101.133 270.564 101.433 270.593 101.704 270.651C101.974 270.709 102.197 270.787 102.371 270.883L101.907 274.218C101.713 274.141 101.472 274.083 101.182 274.044C100.911 274.006 100.553 273.986 100.109 273.986C99.5286 273.986 98.9679 274.131 98.4266 274.421C97.8852 274.692 97.4406 275.117 97.0926 275.697C96.7446 276.258 96.5706 276.973 96.5706 277.843L96.5706 285.354H92.5976ZM113.277 276.103C113.277 275.272 113.035 274.624 112.552 274.16C112.088 273.696 111.469 273.464 110.696 273.464C109.981 273.464 109.352 273.648 108.811 274.015C108.27 274.383 107.873 274.992 107.622 275.842L104.229 274.798C104.558 273.522 105.273 272.498 106.375 271.724C107.496 270.951 108.995 270.564 110.87 270.564C112.146 270.564 113.258 270.767 114.205 271.173C115.152 271.56 115.887 272.15 116.409 272.942C116.95 273.735 117.221 274.731 117.221 275.929L117.221 281.816C117.221 282.551 117.569 282.918 118.265 282.918C118.594 282.918 118.903 282.87 119.193 282.773L118.961 285.238C118.458 285.49 117.83 285.615 117.076 285.615C116.399 285.615 115.79 285.499 115.249 285.267C114.708 285.035 114.282 284.687 113.973 284.223C113.664 283.74 113.509 283.141 113.509 282.425L113.509 282.309L114.205 282.193C114.089 282.928 113.77 283.556 113.248 284.078C112.726 284.581 112.088 284.968 111.334 285.238C110.599 285.509 109.836 285.644 109.043 285.644C108.057 285.644 107.206 285.499 106.491 285.209C105.776 284.9 105.225 284.455 104.838 283.875C104.451 283.295 104.258 282.58 104.258 281.729C104.258 280.647 104.606 279.767 105.302 279.09C105.998 278.394 106.994 277.921 108.289 277.669L113.741 276.567L113.712 279.032L110.232 279.728C109.575 279.864 109.072 280.047 108.724 280.279C108.395 280.492 108.231 280.85 108.231 281.352C108.231 281.836 108.405 282.203 108.753 282.454C109.12 282.706 109.555 282.831 110.058 282.831C110.464 282.831 110.86 282.783 111.247 282.686C111.634 282.59 111.982 282.435 112.291 282.222C112.6 282.01 112.842 281.72 113.016 281.352C113.19 280.985 113.277 280.54 113.277 280.018L113.277 276.103ZM135.553 267.403L136.017 270.245C135.94 270.245 135.853 270.245 135.756 270.245C135.679 270.226 135.592 270.216 135.495 270.216C134.625 270.216 133.958 270.419 133.494 270.825C133.05 271.212 132.827 271.753 132.827 272.449L131.203 271.782C131.203 271.009 131.358 270.294 131.667 269.636C131.977 268.96 132.431 268.418 133.03 268.012C133.649 267.606 134.384 267.403 135.234 267.403C135.273 267.403 135.321 267.403 135.379 267.403C135.437 267.403 135.495 267.403 135.553 267.403ZM130.797 282.628C132.363 282.628 133.572 282.967 134.422 283.643C135.273 284.32 135.698 285.267 135.698 286.485C135.698 287.587 135.379 288.515 134.741 289.269C134.103 290.043 133.204 290.623 132.044 291.009C130.904 291.396 129.579 291.589 128.071 291.589C125.577 291.589 123.75 291.241 122.59 290.545C121.45 289.849 120.879 288.941 120.879 287.819C120.879 287.027 121.179 286.36 121.778 285.818C122.397 285.277 123.412 284.977 124.823 284.919L124.678 285.383C123.673 285.209 122.9 284.881 122.358 284.397C121.836 283.895 121.575 283.208 121.575 282.338C121.575 281.449 121.914 280.724 122.59 280.163C123.286 279.583 124.224 279.245 125.403 279.148L127.143 279.96H126.737C125.906 280.018 125.316 280.192 124.968 280.482C124.64 280.753 124.475 281.062 124.475 281.41C124.475 281.816 124.63 282.126 124.939 282.338C125.268 282.532 125.732 282.628 126.331 282.628H130.797ZM128.1 288.863C129.106 288.863 129.927 288.776 130.565 288.602C131.223 288.428 131.706 288.206 132.015 287.935C132.344 287.665 132.508 287.365 132.508 287.036C132.508 286.669 132.363 286.369 132.073 286.137C131.783 285.925 131.261 285.818 130.507 285.818H125.606C125.142 285.818 124.756 285.934 124.446 286.166C124.156 286.398 124.011 286.717 124.011 287.123C124.011 287.665 124.369 288.09 125.084 288.399C125.819 288.709 126.824 288.863 128.1 288.863ZM128.129 270.564C129.483 270.564 130.652 270.767 131.638 271.173C132.644 271.56 133.407 272.121 133.929 272.855C134.471 273.59 134.741 274.47 134.741 275.494C134.741 276.5 134.471 277.37 133.929 278.104C133.407 278.839 132.644 279.409 131.638 279.815C130.652 280.202 129.483 280.395 128.129 280.395C125.983 280.395 124.34 279.96 123.199 279.09C122.059 278.201 121.488 277.002 121.488 275.494C121.488 274.47 121.759 273.59 122.3 272.855C122.842 272.121 123.605 271.56 124.591 271.173C125.577 270.767 126.757 270.564 128.129 270.564ZM128.129 273.058C127.356 273.058 126.718 273.271 126.215 273.696C125.713 274.122 125.461 274.711 125.461 275.465C125.461 276.219 125.713 276.819 126.215 277.263C126.718 277.689 127.356 277.901 128.129 277.901C128.903 277.901 129.531 277.689 130.014 277.263C130.517 276.819 130.768 276.219 130.768 275.465C130.768 274.711 130.517 274.122 130.014 273.696C129.531 273.271 128.903 273.058 128.129 273.058ZM156.1 276.103C156.1 275.272 155.858 274.624 155.375 274.16C154.911 273.696 154.292 273.464 153.519 273.464C152.803 273.464 152.175 273.648 151.634 274.015C151.092 274.383 150.696 274.992 150.445 275.842L147.052 274.798C147.38 273.522 148.096 272.498 149.198 271.724C150.319 270.951 151.817 270.564 153.693 270.564C154.969 270.564 156.08 270.767 157.028 271.173C157.975 271.56 158.71 272.15 159.232 272.942C159.773 273.735 160.044 274.731 160.044 275.929L160.044 281.816C160.044 282.551 160.392 282.918 161.088 282.918C161.416 282.918 161.726 282.87 162.016 282.773L161.784 285.238C161.281 285.49 160.653 285.615 159.899 285.615C159.222 285.615 158.613 285.499 158.072 285.267C157.53 285.035 157.105 284.687 156.796 284.223C156.486 283.74 156.332 283.141 156.332 282.425L156.332 282.309L157.028 282.193C156.912 282.928 156.593 283.556 156.071 284.078C155.549 284.581 154.911 284.968 154.157 285.238C153.422 285.509 152.658 285.644 151.866 285.644C150.88 285.644 150.029 285.499 149.314 285.209C148.598 284.9 148.047 284.455 147.661 283.875C147.274 283.295 147.081 282.58 147.081 281.729C147.081 280.647 147.429 279.767 148.125 279.09C148.821 278.394 149.816 277.921 151.112 277.669L156.564 276.567L156.535 279.032L153.055 279.728C152.397 279.864 151.895 280.047 151.547 280.279C151.218 280.492 151.054 280.85 151.054 281.352C151.054 281.836 151.228 282.203 151.576 282.454C151.943 282.706 152.378 282.831 152.881 282.831C153.287 282.831 153.683 282.783 154.07 282.686C154.456 282.59 154.804 282.435 155.114 282.222C155.423 282.01 155.665 281.72 155.839 281.352C156.013 280.985 156.1 280.54 156.1 280.018L156.1 276.103ZM164.922 285.354L164.922 270.854H168.489L168.721 275.204L168.228 274.74C168.46 273.793 168.827 273.02 169.33 272.42C169.833 271.802 170.442 271.338 171.157 271.028C171.892 270.719 172.694 270.564 173.564 270.564C174.569 270.564 175.459 270.758 176.232 271.144C177.025 271.531 177.643 272.121 178.088 272.913C178.552 273.687 178.784 274.663 178.784 275.842L178.784 285.354H174.811L174.811 276.973C174.811 275.736 174.569 274.885 174.086 274.421C173.603 273.938 172.974 273.696 172.201 273.696C171.66 273.696 171.128 273.832 170.606 274.102C170.103 274.354 169.688 274.769 169.359 275.349C169.05 275.929 168.895 276.703 168.895 277.669L168.895 285.354H164.922ZM188.793 285.644C187.594 285.644 186.521 285.345 185.574 284.745C184.646 284.146 183.911 283.286 183.37 282.164C182.848 281.043 182.587 279.699 182.587 278.133C182.587 276.529 182.867 275.166 183.428 274.044C183.989 272.904 184.743 272.043 185.69 271.463C186.657 270.864 187.739 270.564 188.938 270.564C190.214 270.564 191.268 270.932 192.099 271.666C192.93 272.401 193.472 273.348 193.723 274.508L193.346 274.972L193.346 264.503H197.319L197.319 285.354H193.752L193.491 280.946L193.955 281.178C193.839 282.087 193.539 282.88 193.056 283.556C192.573 284.214 191.964 284.726 191.229 285.093C190.494 285.461 189.682 285.644 188.793 285.644ZM189.953 282.599C190.649 282.599 191.248 282.425 191.751 282.077C192.254 281.71 192.64 281.178 192.911 280.482C193.201 279.786 193.346 278.955 193.346 277.988C193.346 277.06 193.211 276.277 192.94 275.639C192.669 274.982 192.283 274.479 191.78 274.131C191.277 273.783 190.688 273.609 190.011 273.609C188.928 273.609 188.078 273.996 187.459 274.769C186.86 275.523 186.56 276.635 186.56 278.104C186.56 279.574 186.86 280.695 187.459 281.468C188.058 282.222 188.89 282.599 189.953 282.599ZM219.029 266.214C222.026 266.214 224.346 267.046 225.989 268.708C227.632 270.352 228.454 272.71 228.454 275.784C228.454 278.839 227.632 281.198 225.989 282.86C224.346 284.523 222.026 285.354 219.029 285.354H211.634L211.634 266.214H219.029ZM218.826 282.164C220.643 282.164 222.006 281.623 222.915 280.54C223.843 279.438 224.307 277.853 224.307 275.784C224.307 273.716 223.843 272.14 222.915 271.057C222.006 269.955 220.643 269.404 218.826 269.404H215.636L215.636 282.164H218.826ZM232.422 285.354L232.422 270.854H235.873L236.134 273.696C236.52 272.691 237.081 271.918 237.816 271.376C238.57 270.835 239.507 270.564 240.629 270.564C240.957 270.564 241.257 270.593 241.528 270.651C241.798 270.709 242.021 270.787 242.195 270.883L241.731 274.218C241.537 274.141 241.296 274.083 241.006 274.044C240.735 274.006 240.377 273.986 239.933 273.986C239.353 273.986 238.792 274.131 238.251 274.421C237.709 274.692 237.265 275.117 236.917 275.697C236.569 276.258 236.395 276.973 236.395 277.843L236.395 285.354H232.422ZM251.42 270.564C252.889 270.564 254.175 270.864 255.277 271.463C256.398 272.063 257.268 272.923 257.887 274.044C258.525 275.166 258.844 276.519 258.844 278.104C258.844 279.67 258.525 281.024 257.887 282.164C257.268 283.286 256.398 284.146 255.277 284.745C254.175 285.345 252.889 285.644 251.42 285.644C249.97 285.644 248.684 285.345 247.563 284.745C246.442 284.146 245.562 283.286 244.924 282.164C244.305 281.024 243.996 279.67 243.996 278.104C243.996 276.519 244.305 275.166 244.924 274.044C245.562 272.923 246.442 272.063 247.563 271.463C248.684 270.864 249.97 270.564 251.42 270.564ZM251.42 273.522C250.685 273.522 250.057 273.696 249.535 274.044C249.032 274.373 248.646 274.876 248.375 275.552C248.104 276.229 247.969 277.08 247.969 278.104C247.969 279.129 248.104 279.98 248.375 280.656C248.646 281.333 249.032 281.845 249.535 282.193C250.057 282.522 250.685 282.686 251.42 282.686C252.135 282.686 252.744 282.522 253.247 282.193C253.769 281.845 254.165 281.333 254.436 280.656C254.707 279.98 254.842 279.129 254.842 278.104C254.842 277.08 254.707 276.229 254.436 275.552C254.165 274.876 253.769 274.373 253.247 274.044C252.744 273.696 252.135 273.522 251.42 273.522ZM262.603 291.444L262.603 270.854H266.17L266.431 275.465L265.938 274.943C266.112 274.093 266.431 273.339 266.895 272.681C267.379 272.024 267.988 271.512 268.722 271.144C269.457 270.758 270.279 270.564 271.187 270.564C272.367 270.564 273.42 270.864 274.348 271.463C275.276 272.063 276.001 272.923 276.523 274.044C277.065 275.146 277.335 276.49 277.335 278.075C277.335 279.661 277.065 281.024 276.523 282.164C275.982 283.286 275.238 284.146 274.29 284.745C273.362 285.345 272.299 285.644 271.1 285.644C269.824 285.644 268.761 285.287 267.91 284.571C267.079 283.856 266.509 282.957 266.199 281.874L266.576 281.265L266.576 291.444H262.603ZM269.94 282.599C271.004 282.599 271.835 282.222 272.434 281.468C273.053 280.695 273.362 279.574 273.362 278.104C273.362 276.635 273.063 275.523 272.463 274.769C271.883 273.996 271.062 273.609 269.998 273.609C269.322 273.609 268.722 273.793 268.2 274.16C267.698 274.508 267.301 275.021 267.011 275.697C266.721 276.355 266.576 277.157 266.576 278.104C266.576 279.013 266.712 279.815 266.982 280.511C267.253 281.188 267.64 281.71 268.142 282.077C268.664 282.425 269.264 282.599 269.94 282.599ZM295.312 266.417L295.312 280.627C295.312 281.323 295.486 281.836 295.834 282.164C296.202 282.474 296.695 282.628 297.313 282.628C297.816 282.628 298.241 282.561 298.589 282.425C298.957 282.271 299.285 282.068 299.575 281.816L300.213 284.455C299.749 284.823 299.169 285.113 298.473 285.325C297.777 285.538 297.043 285.644 296.269 285.644C295.303 285.644 294.442 285.499 293.688 285.209C292.954 284.919 292.374 284.455 291.948 283.817C291.542 283.179 291.339 282.329 291.339 281.265L291.339 267.519L295.312 266.417ZM299.952 270.854L299.952 273.812H288.671L288.671 270.854H299.952ZM321.78 270.854H326.014L321.374 285.354H316.792L313.631 275.494L310.586 285.354H306.004L301.364 270.854H305.598L308.498 281.961L311.717 270.854H315.661L318.909 281.961L321.78 270.854ZM335.129 270.564C336.598 270.564 337.884 270.864 338.986 271.463C340.107 272.063 340.977 272.923 341.596 274.044C342.234 275.166 342.553 276.519 342.553 278.104C342.553 279.67 342.234 281.024 341.596 282.164C340.977 283.286 340.107 284.146 338.986 284.745C337.884 285.345 336.598 285.644 335.129 285.644C333.679 285.644 332.393 285.345 331.272 284.745C330.151 284.146 329.271 283.286 328.633 282.164C328.014 281.024 327.705 279.67 327.705 278.104C327.705 276.519 328.014 275.166 328.633 274.044C329.271 272.923 330.151 272.063 331.272 271.463C332.393 270.864 333.679 270.564 335.129 270.564ZM335.129 273.522C334.394 273.522 333.766 273.696 333.244 274.044C332.741 274.373 332.355 274.876 332.084 275.552C331.813 276.229 331.678 277.08 331.678 278.104C331.678 279.129 331.813 279.98 332.084 280.656C332.355 281.333 332.741 281.845 333.244 282.193C333.766 282.522 334.394 282.686 335.129 282.686C335.844 282.686 336.453 282.522 336.956 282.193C337.478 281.845 337.874 281.333 338.145 280.656C338.416 279.98 338.551 279.129 338.551 278.104C338.551 277.08 338.416 276.229 338.145 275.552C337.874 274.876 337.478 274.373 336.956 274.044C336.453 273.696 335.844 273.522 335.129 273.522ZM357.613 268.766C356.781 268.766 356.163 268.592 355.757 268.244C355.351 267.877 355.148 267.345 355.148 266.649C355.148 265.934 355.351 265.402 355.757 265.054C356.163 264.687 356.781 264.503 357.613 264.503C358.444 264.503 359.063 264.687 359.469 265.054C359.875 265.402 360.078 265.934 360.078 266.649C360.078 267.345 359.875 267.877 359.469 268.244C359.063 268.592 358.444 268.766 357.613 268.766ZM359.585 270.854L359.585 285.354H355.612L355.612 270.854H359.585ZM364.231 285.354L364.231 270.854H367.798L367.943 273.464C368.427 272.498 369.084 271.773 369.915 271.289C370.766 270.806 371.704 270.564 372.728 270.564C373.772 270.564 374.71 270.806 375.541 271.289C376.392 271.773 377.03 272.488 377.455 273.435C377.765 272.797 378.18 272.266 378.702 271.84C379.224 271.415 379.804 271.096 380.442 270.883C381.08 270.671 381.728 270.564 382.385 270.564C383.333 270.564 384.193 270.758 384.966 271.144C385.759 271.531 386.387 272.111 386.851 272.884C387.315 273.658 387.547 274.644 387.547 275.842L387.547 285.354H383.574L383.574 276.625C383.574 275.562 383.342 274.808 382.878 274.363C382.414 273.919 381.815 273.696 381.08 273.696C380.5 273.696 379.959 273.841 379.456 274.131C378.973 274.421 378.586 274.856 378.296 275.436C378.026 275.997 377.89 276.703 377.89 277.553L377.89 285.354H373.917L373.917 276.625C373.917 275.562 373.676 274.808 373.192 274.363C372.728 273.919 372.129 273.696 371.394 273.696C370.892 273.696 370.389 273.832 369.886 274.102C369.403 274.373 368.997 274.798 368.668 275.378C368.359 275.958 368.204 276.722 368.204 277.669L368.204 285.354H364.231ZM400.345 276.103C400.345 275.272 400.104 274.624 399.62 274.16C399.156 273.696 398.538 273.464 397.764 273.464C397.049 273.464 396.421 273.648 395.879 274.015C395.338 274.383 394.942 274.992 394.69 275.842L391.297 274.798C391.626 273.522 392.341 272.498 393.443 271.724C394.565 270.951 396.063 270.564 397.938 270.564C399.214 270.564 400.326 270.767 401.273 271.173C402.221 271.56 402.955 272.15 403.477 272.942C404.019 273.735 404.289 274.731 404.289 275.929L404.289 281.816C404.289 282.551 404.637 282.918 405.333 282.918C405.662 282.918 405.971 282.87 406.261 282.773L406.029 285.238C405.527 285.49 404.898 285.615 404.144 285.615C403.468 285.615 402.859 285.499 402.317 285.267C401.776 285.035 401.351 284.687 401.041 284.223C400.732 283.74 400.577 283.141 400.577 282.425L400.577 282.309L401.273 282.193C401.157 282.928 400.838 283.556 400.316 284.078C399.794 284.581 399.156 284.968 398.402 285.238C397.668 285.509 396.904 285.644 396.111 285.644C395.125 285.644 394.275 285.499 393.559 285.209C392.844 284.9 392.293 284.455 391.906 283.875C391.52 283.295 391.326 282.58 391.326 281.729C391.326 280.647 391.674 279.767 392.37 279.09C393.066 278.394 394.062 277.921 395.357 277.669L400.809 276.567L400.78 279.032L397.3 279.728C396.643 279.864 396.14 280.047 395.792 280.279C395.464 280.492 395.299 280.85 395.299 281.352C395.299 281.836 395.473 282.203 395.821 282.454C396.189 282.706 396.624 282.831 397.126 282.831C397.532 282.831 397.929 282.783 398.315 282.686C398.702 282.59 399.05 282.435 399.359 282.222C399.669 282.01 399.91 281.72 400.084 281.352C400.258 280.985 400.345 280.54 400.345 280.018L400.345 276.103ZM422.622 267.403L423.086 270.245C423.008 270.245 422.921 270.245 422.825 270.245C422.747 270.226 422.66 270.216 422.564 270.216C421.694 270.216 421.027 270.419 420.563 270.825C420.118 271.212 419.896 271.753 419.896 272.449L418.272 271.782C418.272 271.009 418.426 270.294 418.736 269.636C419.045 268.96 419.499 268.418 420.099 268.012C420.717 267.606 421.452 267.403 422.303 267.403C422.341 267.403 422.39 267.403 422.448 267.403C422.506 267.403 422.564 267.403 422.622 267.403ZM417.866 282.628C419.432 282.628 420.64 282.967 421.491 283.643C422.341 284.32 422.767 285.267 422.767 286.485C422.767 287.587 422.448 288.515 421.81 289.269C421.172 290.043 420.273 290.623 419.113 291.009C417.972 291.396 416.648 291.589 415.14 291.589C412.646 291.589 410.819 291.241 409.659 290.545C408.518 289.849 407.948 288.941 407.948 287.819C407.948 287.027 408.247 286.36 408.847 285.818C409.465 285.277 410.48 284.977 411.892 284.919L411.747 285.383C410.741 285.209 409.968 284.881 409.427 284.397C408.905 283.895 408.644 283.208 408.644 282.338C408.644 281.449 408.982 280.724 409.659 280.163C410.355 279.583 411.292 279.245 412.472 279.148L414.212 279.96H413.806C412.974 280.018 412.385 280.192 412.037 280.482C411.708 280.753 411.544 281.062 411.544 281.41C411.544 281.816 411.698 282.126 412.008 282.338C412.336 282.532 412.8 282.628 413.4 282.628H417.866ZM415.169 288.863C416.174 288.863 416.996 288.776 417.634 288.602C418.291 288.428 418.774 288.206 419.084 287.935C419.412 287.665 419.577 287.365 419.577 287.036C419.577 286.669 419.432 286.369 419.142 286.137C418.852 285.925 418.33 285.818 417.576 285.818H412.675C412.211 285.818 411.824 285.934 411.515 286.166C411.225 286.398 411.08 286.717 411.08 287.123C411.08 287.665 411.437 288.09 412.153 288.399C412.887 288.709 413.893 288.863 415.169 288.863ZM415.198 270.564C416.551 270.564 417.721 270.767 418.707 271.173C419.712 271.56 420.476 272.121 420.998 272.855C421.539 273.59 421.81 274.47 421.81 275.494C421.81 276.5 421.539 277.37 420.998 278.104C420.476 278.839 419.712 279.409 418.707 279.815C417.721 280.202 416.551 280.395 415.198 280.395C413.052 280.395 411.408 279.96 410.268 279.09C409.127 278.201 408.557 277.002 408.557 275.494C408.557 274.47 408.827 273.59 409.369 272.855C409.91 272.121 410.674 271.56 411.66 271.173C412.646 270.767 413.825 270.564 415.198 270.564ZM415.198 273.058C414.424 273.058 413.786 273.271 413.284 273.696C412.781 274.122 412.53 274.711 412.53 275.465C412.53 276.219 412.781 276.819 413.284 277.263C413.786 277.689 414.424 277.901 415.198 277.901C415.971 277.901 416.599 277.689 417.083 277.263C417.585 276.819 417.837 276.219 417.837 275.465C417.837 274.711 417.585 274.122 417.083 273.696C416.599 273.271 415.971 273.058 415.198 273.058ZM432.332 285.644C430.804 285.644 429.47 285.345 428.33 284.745C427.208 284.146 426.338 283.286 425.72 282.164C425.101 281.043 424.792 279.69 424.792 278.104C424.792 276.519 425.101 275.166 425.72 274.044C426.338 272.923 427.199 272.063 428.301 271.463C429.422 270.864 430.698 270.564 432.129 270.564C433.598 270.564 434.845 270.864 435.87 271.463C436.894 272.043 437.677 272.846 438.219 273.87C438.76 274.876 439.031 276.026 439.031 277.321C439.031 277.708 439.021 278.075 439.002 278.423C438.982 278.771 438.953 279.081 438.915 279.351H427.344L427.344 276.596H437.175L435.261 277.292C435.261 276.074 434.98 275.137 434.42 274.479C433.878 273.822 433.105 273.493 432.1 273.493C431.365 273.493 430.727 273.667 430.186 274.015C429.664 274.363 429.267 274.885 428.997 275.581C428.726 276.258 428.591 277.118 428.591 278.162C428.591 279.187 428.736 280.038 429.026 280.714C429.335 281.372 429.76 281.865 430.302 282.193C430.862 282.522 431.529 282.686 432.303 282.686C433.153 282.686 433.84 282.522 434.362 282.193C434.884 281.865 435.29 281.41 435.58 280.83L438.741 282.048C438.431 282.802 437.958 283.45 437.32 283.991C436.701 284.533 435.957 284.948 435.087 285.238C434.236 285.509 433.318 285.644 432.332 285.644ZM448.633 285.644C447.163 285.644 445.82 285.383 444.602 284.861C443.403 284.339 442.427 283.605 441.673 282.657L443.964 280.337C444.428 281.033 445.046 281.604 445.82 282.048C446.593 282.493 447.511 282.715 448.575 282.715C449.329 282.715 449.928 282.609 450.373 282.396C450.837 282.164 451.069 281.807 451.069 281.323C451.069 281.014 450.962 280.753 450.75 280.54C450.537 280.308 450.112 280.125 449.474 279.989L446.922 279.467C445.24 279.119 444.041 278.597 443.326 277.901C442.63 277.186 442.282 276.268 442.282 275.146C442.282 274.354 442.514 273.609 442.978 272.913C443.461 272.217 444.176 271.657 445.124 271.231C446.071 270.787 447.25 270.564 448.662 270.564C450.112 270.564 451.368 270.796 452.432 271.26C453.514 271.705 454.365 272.372 454.984 273.261L452.606 275.581C452.18 274.905 451.62 274.392 450.924 274.044C450.247 273.677 449.532 273.493 448.778 273.493C448.236 273.493 447.772 273.551 447.386 273.667C446.999 273.783 446.709 273.948 446.516 274.16C446.322 274.354 446.226 274.605 446.226 274.914C446.226 275.224 446.361 275.494 446.632 275.726C446.902 275.939 447.395 276.123 448.111 276.277L451.069 276.886C452.499 277.176 453.524 277.669 454.143 278.365C454.761 279.042 455.071 279.864 455.071 280.83C455.071 281.758 454.819 282.59 454.317 283.324C453.833 284.04 453.108 284.61 452.142 285.035C451.194 285.441 450.025 285.644 448.633 285.644ZM467.973 285.354L467.973 264.503H471.946L471.946 273.319C472.41 272.391 473.048 271.705 473.86 271.26C474.672 270.796 475.59 270.564 476.615 270.564C477.62 270.564 478.51 270.758 479.283 271.144C480.076 271.531 480.694 272.121 481.139 272.913C481.603 273.687 481.835 274.663 481.835 275.842L481.835 285.354H477.862L477.862 277.002C477.862 275.746 477.62 274.885 477.137 274.421C476.654 273.938 476.035 273.696 475.281 273.696C474.72 273.696 474.179 273.832 473.657 274.102C473.154 274.354 472.739 274.779 472.41 275.378C472.101 275.958 471.946 276.732 471.946 277.698L471.946 285.354H467.973ZM493.091 285.644C491.564 285.644 490.23 285.345 489.089 284.745C487.968 284.146 487.098 283.286 486.479 282.164C485.861 281.043 485.551 279.69 485.551 278.104C485.551 276.519 485.861 275.166 486.479 274.044C487.098 272.923 487.958 272.063 489.06 271.463C490.182 270.864 491.458 270.564 492.888 270.564C494.358 270.564 495.605 270.864 496.629 271.463C497.654 272.043 498.437 272.846 498.978 273.87C499.52 274.876 499.79 276.026 499.79 277.321C499.79 277.708 499.781 278.075 499.761 278.423C499.742 278.771 499.713 279.081 499.674 279.351H488.103L488.103 276.596H497.934L496.02 277.292C496.02 276.074 495.74 275.137 495.179 274.479C494.638 273.822 493.865 273.493 492.859 273.493C492.125 273.493 491.487 273.667 490.945 274.015C490.423 274.363 490.027 274.885 489.756 275.581C489.486 276.258 489.35 277.118 489.35 278.162C489.35 279.187 489.495 280.038 489.785 280.714C490.095 281.372 490.52 281.865 491.061 282.193C491.622 282.522 492.289 282.686 493.062 282.686C493.913 282.686 494.599 282.522 495.121 282.193C495.643 281.865 496.049 281.41 496.339 280.83L499.5 282.048C499.191 282.802 498.717 283.45 498.079 283.991C497.461 284.533 496.716 284.948 495.846 285.238C494.996 285.509 494.077 285.644 493.091 285.644ZM503.592 285.354L503.592 270.854H507.043L507.304 273.696C507.691 272.691 508.251 271.918 508.986 271.376C509.74 270.835 510.678 270.564 511.799 270.564C512.128 270.564 512.427 270.593 512.698 270.651C512.969 270.709 513.191 270.787 513.365 270.883L512.901 274.218C512.708 274.141 512.466 274.083 512.176 274.044C511.905 274.006 511.548 273.986 511.103 273.986C510.523 273.986 509.962 274.131 509.421 274.421C508.88 274.692 508.435 275.117 508.087 275.697C507.739 276.258 507.565 276.973 507.565 277.843L507.565 285.354H503.592ZM522.706 285.644C521.179 285.644 519.845 285.345 518.704 284.745C517.583 284.146 516.713 283.286 516.094 282.164C515.476 281.043 515.166 279.69 515.166 278.104C515.166 276.519 515.476 275.166 516.094 274.044C516.713 272.923 517.573 272.063 518.675 271.463C519.797 270.864 521.073 270.564 522.503 270.564C523.973 270.564 525.22 270.864 526.244 271.463C527.269 272.043 528.052 272.846 528.593 273.87C529.135 274.876 529.405 276.026 529.405 277.321C529.405 277.708 529.396 278.075 529.376 278.423C529.357 278.771 529.328 279.081 529.289 279.351H517.718L517.718 276.596H527.549L525.635 277.292C525.635 276.074 525.355 275.137 524.794 274.479C524.253 273.822 523.48 273.493 522.474 273.493C521.74 273.493 521.102 273.667 520.56 274.015C520.038 274.363 519.642 274.885 519.371 275.581C519.101 276.258 518.965 277.118 518.965 278.162C518.965 279.187 519.11 280.038 519.4 280.714C519.71 281.372 520.135 281.865 520.676 282.193C521.237 282.522 521.904 282.686 522.677 282.686C523.528 282.686 524.214 282.522 524.736 282.193C525.258 281.865 525.664 281.41 525.954 280.83L529.115 282.048C528.806 282.802 528.332 283.45 527.694 283.991C527.076 284.533 526.331 284.948 525.461 285.238C524.611 285.509 523.692 285.644 522.706 285.644Z" fill="#2C2C2C"/>
<path d="M293.784 332.564C295.196 332.564 296.443 332.864 297.525 333.463C298.608 334.063 299.449 334.933 300.048 336.073C300.667 337.195 300.976 338.538 300.976 340.104C300.976 341.67 300.667 343.024 300.048 344.164C299.449 345.286 298.608 346.146 297.525 346.745C296.443 347.345 295.196 347.644 293.784 347.644C292.373 347.644 291.126 347.345 290.043 346.745C288.961 346.146 288.11 345.286 287.491 344.164C286.873 343.024 286.563 341.67 286.563 340.104C286.563 338.538 286.873 337.195 287.491 336.073C288.11 334.933 288.961 334.063 290.043 333.463C291.126 332.864 292.373 332.564 293.784 332.564ZM293.784 335C292.914 335 292.17 335.203 291.551 335.609C290.952 335.996 290.488 336.566 290.159 337.32C289.831 338.074 289.666 339.002 289.666 340.104C289.666 341.187 289.831 342.115 290.159 342.888C290.488 343.642 290.952 344.222 291.551 344.628C292.17 345.015 292.914 345.208 293.784 345.208C294.654 345.208 295.389 345.015 295.988 344.628C296.588 344.222 297.052 343.642 297.38 342.888C297.709 342.115 297.873 341.187 297.873 340.104C297.873 339.002 297.709 338.074 297.38 337.32C297.052 336.566 296.588 335.996 295.988 335.609C295.389 335.203 294.654 335 293.784 335ZM305.315 347.354L305.315 332.854H307.954L308.244 335.464C308.631 334.517 309.201 333.802 309.955 333.318C310.728 332.816 311.676 332.564 312.797 332.564C313.087 332.564 313.377 332.593 313.667 332.651C313.957 332.69 314.199 332.758 314.392 332.854L313.957 335.58C313.744 335.503 313.503 335.445 313.232 335.406C312.981 335.348 312.633 335.319 312.188 335.319C311.589 335.319 310.999 335.484 310.419 335.812C309.839 336.122 309.356 336.595 308.969 337.233C308.602 337.871 308.418 338.683 308.418 339.669L308.418 347.354H305.315Z" fill="#2C2C2C"/>
<path d="M318.375 197.454C316.675 188.829 309.1 182.354 300 182.354C292.775 182.354 286.5 186.454 283.375 192.454C275.85 193.254 270 199.629 270 207.354C270 215.629 276.725 222.354 285 222.354H317.5C324.4 222.354 330 216.754 330 209.854C330 203.254 324.875 197.904 318.375 197.454ZM305 204.854V214.854H295V204.854H287.5L300 192.354L312.5 204.854H305Z" fill="#FF4242"/>
<defs>
<filter id="filter0_d" x="141" y="351.354" width="318" height="152" filterUnits="userSpaceOnUse" color-interpolation-filters="sRGB">
<feFlood flood-opacity="0" result="BackgroundImageFix"/>
<feColorMatrix in="SourceAlpha" type="matrix" values="0 0 0 0 0 0 0 0 0 0 0 0 0 0 0 0 0 0 127 0"/>
<feOffset dy="7"/>
<feGaussianBlur stdDeviation="18"/>
<feColorMatrix type="matrix" values="0 0 0 0 0 0 0 0 0 0 0 0 0 0 0 0 0 0 0.19 0"/>
<feBlend mode="normal" in2="BackgroundImageFix" result="effect1_dropShadow"/>
<feBlend mode="normal" in="SourceGraphic" in2="effect1_dropShadow" result="shape"/>
</filter>
</defs>
</svg>
