<svg width="600" height="600" viewBox="0 0 600 600" fill="none" xmlns="http://www.w3.org/2000/svg">
<circle cx="300" cy="300" r="96.3077" stroke="#FF4242" stroke-opacity="0.34" stroke-width="5"/>
<circle cx="300" cy="300" r="191.092" stroke="#FF4242" stroke-opacity="0.21" stroke-width="5"/>
<circle cx="300" cy="300" r="297.5" stroke="#FF4242" stroke-opacity="0.06" stroke-width="5"/>
<path d="M79.2048 332.86C82.2014 332.86 84.5214 333.691 86.1648 335.354C87.8081 336.997 88.6298 339.356 88.6298 342.43C88.6298 345.485 87.8081 347.843 86.1648 349.506C84.5214 351.169 82.2014 352 79.2048 352H71.8098L71.8098 332.86H79.2048ZM79.0018 348.81C80.8191 348.81 82.1821 348.269 83.0908 347.186C84.0188 346.084 84.4828 344.499 84.4828 342.43C84.4828 340.361 84.0188 338.786 83.0908 337.703C82.1821 336.601 80.8191 336.05 79.0018 336.05H75.8118L75.8118 348.81H79.0018ZM92.5976 352L92.5976 337.5H96.0486L96.3096 340.342C96.6962 339.337 97.2569 338.563 97.9916 338.022C98.7456 337.481 99.6832 337.21 100.805 337.21C101.133 337.21 101.433 337.239 101.704 337.297C101.974 337.355 102.197 337.432 102.371 337.529L101.907 340.864C101.713 340.787 101.472 340.729 101.182 340.69C100.911 340.651 100.553 340.632 100.109 340.632C99.5286 340.632 98.9679 340.777 98.4266 341.067C97.8852 341.338 97.4406 341.763 97.0926 342.343C96.7446 342.904 96.5706 343.619 96.5706 344.489L96.5706 352H92.5976ZM113.277 342.749C113.277 341.918 113.035 341.27 112.552 340.806C112.088 340.342 111.469 340.11 110.696 340.11C109.981 340.11 109.352 340.294 108.811 340.661C108.27 341.028 107.873 341.637 107.622 342.488L104.229 341.444C104.558 340.168 105.273 339.143 106.375 338.37C107.496 337.597 108.995 337.21 110.87 337.21C112.146 337.21 113.258 337.413 114.205 337.819C115.152 338.206 115.887 338.795 116.409 339.588C116.95 340.381 117.221 341.376 117.221 342.575L117.221 348.462C117.221 349.197 117.569 349.564 118.265 349.564C118.594 349.564 118.903 349.516 119.193 349.419L118.961 351.884C118.458 352.135 117.83 352.261 117.076 352.261C116.399 352.261 115.79 352.145 115.249 351.913C114.708 351.681 114.282 351.333 113.973 350.869C113.664 350.386 113.509 349.786 113.509 349.071L113.509 348.955L114.205 348.839C114.089 349.574 113.77 350.202 113.248 350.724C112.726 351.227 112.088 351.613 111.334 351.884C110.599 352.155 109.836 352.29 109.043 352.29C108.057 352.29 107.206 352.145 106.491 351.855C105.776 351.546 105.225 351.101 104.838 350.521C104.451 349.941 104.258 349.226 104.258 348.375C104.258 347.292 104.606 346.413 105.302 345.736C105.998 345.04 106.994 344.566 108.289 344.315L113.741 343.213L113.712 345.678L110.232 346.374C109.575 346.509 109.072 346.693 108.724 346.925C108.395 347.138 108.231 347.495 108.231 347.998C108.231 348.481 108.405 348.849 108.753 349.1C109.12 349.351 109.555 349.477 110.058 349.477C110.464 349.477 110.86 349.429 111.247 349.332C111.634 349.235 111.982 349.081 112.291 348.868C112.6 348.655 112.842 348.365 113.016 347.998C113.19 347.631 113.277 347.186 113.277 346.664L113.277 342.749ZM135.553 334.049L136.017 336.891C135.94 336.891 135.853 336.891 135.756 336.891C135.679 336.872 135.592 336.862 135.495 336.862C134.625 336.862 133.958 337.065 133.494 337.471C133.05 337.858 132.827 338.399 132.827 339.095L131.203 338.428C131.203 337.655 131.358 336.939 131.667 336.282C131.977 335.605 132.431 335.064 133.03 334.658C133.649 334.252 134.384 334.049 135.234 334.049C135.273 334.049 135.321 334.049 135.379 334.049C135.437 334.049 135.495 334.049 135.553 334.049ZM130.797 349.274C132.363 349.274 133.572 349.612 134.422 350.289C135.273 350.966 135.698 351.913 135.698 353.131C135.698 354.233 135.379 355.161 134.741 355.915C134.103 356.688 133.204 357.268 132.044 357.655C130.904 358.042 129.579 358.235 128.071 358.235C125.577 358.235 123.75 357.887 122.59 357.191C121.45 356.495 120.879 355.586 120.879 354.465C120.879 353.672 121.179 353.005 121.778 352.464C122.397 351.923 123.412 351.623 124.823 351.565L124.678 352.029C123.673 351.855 122.9 351.526 122.358 351.043C121.836 350.54 121.575 349.854 121.575 348.984C121.575 348.095 121.914 347.37 122.59 346.809C123.286 346.229 124.224 345.891 125.403 345.794L127.143 346.606H126.737C125.906 346.664 125.316 346.838 124.968 347.128C124.64 347.399 124.475 347.708 124.475 348.056C124.475 348.462 124.63 348.771 124.939 348.984C125.268 349.177 125.732 349.274 126.331 349.274H130.797ZM128.1 355.509C129.106 355.509 129.927 355.422 130.565 355.248C131.223 355.074 131.706 354.852 132.015 354.581C132.344 354.31 132.508 354.011 132.508 353.682C132.508 353.315 132.363 353.015 132.073 352.783C131.783 352.57 131.261 352.464 130.507 352.464H125.606C125.142 352.464 124.756 352.58 124.446 352.812C124.156 353.044 124.011 353.363 124.011 353.769C124.011 354.31 124.369 354.736 125.084 355.045C125.819 355.354 126.824 355.509 128.1 355.509ZM128.129 337.21C129.483 337.21 130.652 337.413 131.638 337.819C132.644 338.206 133.407 338.766 133.929 339.501C134.471 340.236 134.741 341.115 134.741 342.14C134.741 343.145 134.471 344.015 133.929 344.75C133.407 345.485 132.644 346.055 131.638 346.461C130.652 346.848 129.483 347.041 128.129 347.041C125.983 347.041 124.34 346.606 123.199 345.736C122.059 344.847 121.488 343.648 121.488 342.14C121.488 341.115 121.759 340.236 122.3 339.501C122.842 338.766 123.605 338.206 124.591 337.819C125.577 337.413 126.757 337.21 128.129 337.21ZM128.129 339.704C127.356 339.704 126.718 339.917 126.215 340.342C125.713 340.767 125.461 341.357 125.461 342.111C125.461 342.865 125.713 343.464 126.215 343.909C126.718 344.334 127.356 344.547 128.129 344.547C128.903 344.547 129.531 344.334 130.014 343.909C130.517 343.464 130.768 342.865 130.768 342.111C130.768 341.357 130.517 340.767 130.014 340.342C129.531 339.917 128.903 339.704 128.129 339.704ZM156.1 342.749C156.1 341.918 155.858 341.27 155.375 340.806C154.911 340.342 154.292 340.11 153.519 340.11C152.803 340.11 152.175 340.294 151.634 340.661C151.092 341.028 150.696 341.637 150.445 342.488L147.052 341.444C147.38 340.168 148.096 339.143 149.198 338.37C150.319 337.597 151.817 337.21 153.693 337.21C154.969 337.21 156.08 337.413 157.028 337.819C157.975 338.206 158.71 338.795 159.232 339.588C159.773 340.381 160.044 341.376 160.044 342.575L160.044 348.462C160.044 349.197 160.392 349.564 161.088 349.564C161.416 349.564 161.726 349.516 162.016 349.419L161.784 351.884C161.281 352.135 160.653 352.261 159.899 352.261C159.222 352.261 158.613 352.145 158.072 351.913C157.53 351.681 157.105 351.333 156.796 350.869C156.486 350.386 156.332 349.786 156.332 349.071L156.332 348.955L157.028 348.839C156.912 349.574 156.593 350.202 156.071 350.724C155.549 351.227 154.911 351.613 154.157 351.884C153.422 352.155 152.658 352.29 151.866 352.29C150.88 352.29 150.029 352.145 149.314 351.855C148.598 351.546 148.047 351.101 147.661 350.521C147.274 349.941 147.081 349.226 147.081 348.375C147.081 347.292 147.429 346.413 148.125 345.736C148.821 345.04 149.816 344.566 151.112 344.315L156.564 343.213L156.535 345.678L153.055 346.374C152.397 346.509 151.895 346.693 151.547 346.925C151.218 347.138 151.054 347.495 151.054 347.998C151.054 348.481 151.228 348.849 151.576 349.1C151.943 349.351 152.378 349.477 152.881 349.477C153.287 349.477 153.683 349.429 154.07 349.332C154.456 349.235 154.804 349.081 155.114 348.868C155.423 348.655 155.665 348.365 155.839 347.998C156.013 347.631 156.1 347.186 156.1 346.664L156.1 342.749ZM164.922 352L164.922 337.5H168.489L168.721 341.85L168.228 341.386C168.46 340.439 168.827 339.665 169.33 339.066C169.833 338.447 170.442 337.983 171.157 337.674C171.892 337.365 172.694 337.21 173.564 337.21C174.569 337.21 175.459 337.403 176.232 337.79C177.025 338.177 177.643 338.766 178.088 339.559C178.552 340.332 178.784 341.309 178.784 342.488L178.784 352H174.811L174.811 343.619C174.811 342.382 174.569 341.531 174.086 341.067C173.603 340.584 172.974 340.342 172.201 340.342C171.66 340.342 171.128 340.477 170.606 340.748C170.103 340.999 169.688 341.415 169.359 341.995C169.05 342.575 168.895 343.348 168.895 344.315L168.895 352H164.922ZM188.793 352.29C187.594 352.29 186.521 351.99 185.574 351.391C184.646 350.792 183.911 349.931 183.37 348.81C182.848 347.689 182.587 346.345 182.587 344.779C182.587 343.174 182.867 341.811 183.428 340.69C183.989 339.549 184.743 338.689 185.69 338.109C186.657 337.51 187.739 337.21 188.938 337.21C190.214 337.21 191.268 337.577 192.099 338.312C192.93 339.047 193.472 339.994 193.723 341.154L193.346 341.618L193.346 331.149H197.319L197.319 352H193.752L193.491 347.592L193.955 347.824C193.839 348.733 193.539 349.525 193.056 350.202C192.573 350.859 191.964 351.372 191.229 351.739C190.494 352.106 189.682 352.29 188.793 352.29ZM189.953 349.245C190.649 349.245 191.248 349.071 191.751 348.723C192.254 348.356 192.64 347.824 192.911 347.128C193.201 346.432 193.346 345.601 193.346 344.634C193.346 343.706 193.211 342.923 192.94 342.285C192.669 341.628 192.283 341.125 191.78 340.777C191.277 340.429 190.688 340.255 190.011 340.255C188.928 340.255 188.078 340.642 187.459 341.415C186.86 342.169 186.56 343.281 186.56 344.75C186.56 346.219 186.86 347.341 187.459 348.114C188.058 348.868 188.89 349.245 189.953 349.245ZM219.029 332.86C222.026 332.86 224.346 333.691 225.989 335.354C227.632 336.997 228.454 339.356 228.454 342.43C228.454 345.485 227.632 347.843 225.989 349.506C224.346 351.169 222.026 352 219.029 352H211.634L211.634 332.86H219.029ZM218.826 348.81C220.643 348.81 222.006 348.269 222.915 347.186C223.843 346.084 224.307 344.499 224.307 342.43C224.307 340.361 223.843 338.786 222.915 337.703C222.006 336.601 220.643 336.05 218.826 336.05H215.636L215.636 348.81H218.826ZM232.422 352L232.422 337.5H235.873L236.134 340.342C236.52 339.337 237.081 338.563 237.816 338.022C238.57 337.481 239.507 337.21 240.629 337.21C240.957 337.21 241.257 337.239 241.528 337.297C241.798 337.355 242.021 337.432 242.195 337.529L241.731 340.864C241.537 340.787 241.296 340.729 241.006 340.69C240.735 340.651 240.377 340.632 239.933 340.632C239.353 340.632 238.792 340.777 238.251 341.067C237.709 341.338 237.265 341.763 236.917 342.343C236.569 342.904 236.395 343.619 236.395 344.489L236.395 352H232.422ZM251.42 337.21C252.889 337.21 254.175 337.51 255.277 338.109C256.398 338.708 257.268 339.569 257.887 340.69C258.525 341.811 258.844 343.165 258.844 344.75C258.844 346.316 258.525 347.669 257.887 348.81C257.268 349.931 256.398 350.792 255.277 351.391C254.175 351.99 252.889 352.29 251.42 352.29C249.97 352.29 248.684 351.99 247.563 351.391C246.442 350.792 245.562 349.931 244.924 348.81C244.305 347.669 243.996 346.316 243.996 344.75C243.996 343.165 244.305 341.811 244.924 340.69C245.562 339.569 246.442 338.708 247.563 338.109C248.684 337.51 249.97 337.21 251.42 337.21ZM251.42 340.168C250.685 340.168 250.057 340.342 249.535 340.69C249.032 341.019 248.646 341.521 248.375 342.198C248.104 342.875 247.969 343.725 247.969 344.75C247.969 345.775 248.104 346.625 248.375 347.302C248.646 347.979 249.032 348.491 249.535 348.839C250.057 349.168 250.685 349.332 251.42 349.332C252.135 349.332 252.744 349.168 253.247 348.839C253.769 348.491 254.165 347.979 254.436 347.302C254.707 346.625 254.842 345.775 254.842 344.75C254.842 343.725 254.707 342.875 254.436 342.198C254.165 341.521 253.769 341.019 253.247 340.69C252.744 340.342 252.135 340.168 251.42 340.168ZM262.603 358.09L262.603 337.5H266.17L266.431 342.111L265.938 341.589C266.112 340.738 266.431 339.984 266.895 339.327C267.379 338.67 267.988 338.157 268.722 337.79C269.457 337.403 270.279 337.21 271.187 337.21C272.367 337.21 273.42 337.51 274.348 338.109C275.276 338.708 276.001 339.569 276.523 340.69C277.065 341.792 277.335 343.136 277.335 344.721C277.335 346.306 277.065 347.669 276.523 348.81C275.982 349.931 275.238 350.792 274.29 351.391C273.362 351.99 272.299 352.29 271.1 352.29C269.824 352.29 268.761 351.932 267.91 351.217C267.079 350.502 266.509 349.603 266.199 348.52L266.576 347.911L266.576 358.09H262.603ZM269.94 349.245C271.004 349.245 271.835 348.868 272.434 348.114C273.053 347.341 273.362 346.219 273.362 344.75C273.362 343.281 273.063 342.169 272.463 341.415C271.883 340.642 271.062 340.255 269.998 340.255C269.322 340.255 268.722 340.439 268.2 340.806C267.698 341.154 267.301 341.666 267.011 342.343C266.721 343 266.576 343.803 266.576 344.75C266.576 345.659 266.712 346.461 266.982 347.157C267.253 347.834 267.64 348.356 268.142 348.723C268.664 349.071 269.264 349.245 269.94 349.245ZM295.312 333.063L295.312 347.273C295.312 347.969 295.486 348.481 295.834 348.81C296.202 349.119 296.695 349.274 297.313 349.274C297.816 349.274 298.241 349.206 298.589 349.071C298.957 348.916 299.285 348.713 299.575 348.462L300.213 351.101C299.749 351.468 299.169 351.758 298.473 351.971C297.777 352.184 297.043 352.29 296.269 352.29C295.303 352.29 294.442 352.145 293.688 351.855C292.954 351.565 292.374 351.101 291.948 350.463C291.542 349.825 291.339 348.974 291.339 347.911L291.339 334.165L295.312 333.063ZM299.952 337.5L299.952 340.458H288.671L288.671 337.5H299.952ZM321.78 337.5H326.014L321.374 352H316.792L313.631 342.14L310.586 352H306.004L301.364 337.5H305.598L308.498 348.607L311.717 337.5H315.661L318.909 348.607L321.78 337.5ZM335.129 337.21C336.598 337.21 337.884 337.51 338.986 338.109C340.107 338.708 340.977 339.569 341.596 340.69C342.234 341.811 342.553 343.165 342.553 344.75C342.553 346.316 342.234 347.669 341.596 348.81C340.977 349.931 340.107 350.792 338.986 351.391C337.884 351.99 336.598 352.29 335.129 352.29C333.679 352.29 332.393 351.99 331.272 351.391C330.151 350.792 329.271 349.931 328.633 348.81C328.014 347.669 327.705 346.316 327.705 344.75C327.705 343.165 328.014 341.811 328.633 340.69C329.271 339.569 330.151 338.708 331.272 338.109C332.393 337.51 333.679 337.21 335.129 337.21ZM335.129 340.168C334.394 340.168 333.766 340.342 333.244 340.69C332.741 341.019 332.355 341.521 332.084 342.198C331.813 342.875 331.678 343.725 331.678 344.75C331.678 345.775 331.813 346.625 332.084 347.302C332.355 347.979 332.741 348.491 333.244 348.839C333.766 349.168 334.394 349.332 335.129 349.332C335.844 349.332 336.453 349.168 336.956 348.839C337.478 348.491 337.874 347.979 338.145 347.302C338.416 346.625 338.551 345.775 338.551 344.75C338.551 343.725 338.416 342.875 338.145 342.198C337.874 341.521 337.478 341.019 336.956 340.69C336.453 340.342 335.844 340.168 335.129 340.168ZM357.613 335.412C356.781 335.412 356.163 335.238 355.757 334.89C355.351 334.523 355.148 333.991 355.148 333.295C355.148 332.58 355.351 332.048 355.757 331.7C356.163 331.333 356.781 331.149 357.613 331.149C358.444 331.149 359.063 331.333 359.469 331.7C359.875 332.048 360.078 332.58 360.078 333.295C360.078 333.991 359.875 334.523 359.469 334.89C359.063 335.238 358.444 335.412 357.613 335.412ZM359.585 337.5L359.585 352H355.612L355.612 337.5H359.585ZM364.231 352L364.231 337.5H367.798L367.943 340.11C368.427 339.143 369.084 338.418 369.915 337.935C370.766 337.452 371.704 337.21 372.728 337.21C373.772 337.21 374.71 337.452 375.541 337.935C376.392 338.418 377.03 339.134 377.455 340.081C377.765 339.443 378.18 338.911 378.702 338.486C379.224 338.061 379.804 337.742 380.442 337.529C381.08 337.316 381.728 337.21 382.385 337.21C383.333 337.21 384.193 337.403 384.966 337.79C385.759 338.177 386.387 338.757 386.851 339.53C387.315 340.303 387.547 341.289 387.547 342.488L387.547 352H383.574L383.574 343.271C383.574 342.208 383.342 341.454 382.878 341.009C382.414 340.564 381.815 340.342 381.08 340.342C380.5 340.342 379.959 340.487 379.456 340.777C378.973 341.067 378.586 341.502 378.296 342.082C378.026 342.643 377.89 343.348 377.89 344.199L377.89 352H373.917L373.917 343.271C373.917 342.208 373.676 341.454 373.192 341.009C372.728 340.564 372.129 340.342 371.394 340.342C370.892 340.342 370.389 340.477 369.886 340.748C369.403 341.019 368.997 341.444 368.668 342.024C368.359 342.604 368.204 343.368 368.204 344.315L368.204 352H364.231ZM400.345 342.749C400.345 341.918 400.104 341.27 399.62 340.806C399.156 340.342 398.538 340.11 397.764 340.11C397.049 340.11 396.421 340.294 395.879 340.661C395.338 341.028 394.942 341.637 394.69 342.488L391.297 341.444C391.626 340.168 392.341 339.143 393.443 338.37C394.565 337.597 396.063 337.21 397.938 337.21C399.214 337.21 400.326 337.413 401.273 337.819C402.221 338.206 402.955 338.795 403.477 339.588C404.019 340.381 404.289 341.376 404.289 342.575L404.289 348.462C404.289 349.197 404.637 349.564 405.333 349.564C405.662 349.564 405.971 349.516 406.261 349.419L406.029 351.884C405.527 352.135 404.898 352.261 404.144 352.261C403.468 352.261 402.859 352.145 402.317 351.913C401.776 351.681 401.351 351.333 401.041 350.869C400.732 350.386 400.577 349.786 400.577 349.071L400.577 348.955L401.273 348.839C401.157 349.574 400.838 350.202 400.316 350.724C399.794 351.227 399.156 351.613 398.402 351.884C397.668 352.155 396.904 352.29 396.111 352.29C395.125 352.29 394.275 352.145 393.559 351.855C392.844 351.546 392.293 351.101 391.906 350.521C391.52 349.941 391.326 349.226 391.326 348.375C391.326 347.292 391.674 346.413 392.37 345.736C393.066 345.04 394.062 344.566 395.357 344.315L400.809 343.213L400.78 345.678L397.3 346.374C396.643 346.509 396.14 346.693 395.792 346.925C395.464 347.138 395.299 347.495 395.299 347.998C395.299 348.481 395.473 348.849 395.821 349.1C396.189 349.351 396.624 349.477 397.126 349.477C397.532 349.477 397.929 349.429 398.315 349.332C398.702 349.235 399.05 349.081 399.359 348.868C399.669 348.655 399.91 348.365 400.084 347.998C400.258 347.631 400.345 347.186 400.345 346.664L400.345 342.749ZM422.622 334.049L423.086 336.891C423.008 336.891 422.921 336.891 422.825 336.891C422.747 336.872 422.66 336.862 422.564 336.862C421.694 336.862 421.027 337.065 420.563 337.471C420.118 337.858 419.896 338.399 419.896 339.095L418.272 338.428C418.272 337.655 418.426 336.939 418.736 336.282C419.045 335.605 419.499 335.064 420.099 334.658C420.717 334.252 421.452 334.049 422.303 334.049C422.341 334.049 422.39 334.049 422.448 334.049C422.506 334.049 422.564 334.049 422.622 334.049ZM417.866 349.274C419.432 349.274 420.64 349.612 421.491 350.289C422.341 350.966 422.767 351.913 422.767 353.131C422.767 354.233 422.448 355.161 421.81 355.915C421.172 356.688 420.273 357.268 419.113 357.655C417.972 358.042 416.648 358.235 415.14 358.235C412.646 358.235 410.819 357.887 409.659 357.191C408.518 356.495 407.948 355.586 407.948 354.465C407.948 353.672 408.247 353.005 408.847 352.464C409.465 351.923 410.48 351.623 411.892 351.565L411.747 352.029C410.741 351.855 409.968 351.526 409.427 351.043C408.905 350.54 408.644 349.854 408.644 348.984C408.644 348.095 408.982 347.37 409.659 346.809C410.355 346.229 411.292 345.891 412.472 345.794L414.212 346.606H413.806C412.974 346.664 412.385 346.838 412.037 347.128C411.708 347.399 411.544 347.708 411.544 348.056C411.544 348.462 411.698 348.771 412.008 348.984C412.336 349.177 412.8 349.274 413.4 349.274H417.866ZM415.169 355.509C416.174 355.509 416.996 355.422 417.634 355.248C418.291 355.074 418.774 354.852 419.084 354.581C419.412 354.31 419.577 354.011 419.577 353.682C419.577 353.315 419.432 353.015 419.142 352.783C418.852 352.57 418.33 352.464 417.576 352.464H412.675C412.211 352.464 411.824 352.58 411.515 352.812C411.225 353.044 411.08 353.363 411.08 353.769C411.08 354.31 411.437 354.736 412.153 355.045C412.887 355.354 413.893 355.509 415.169 355.509ZM415.198 337.21C416.551 337.21 417.721 337.413 418.707 337.819C419.712 338.206 420.476 338.766 420.998 339.501C421.539 340.236 421.81 341.115 421.81 342.14C421.81 343.145 421.539 344.015 420.998 344.75C420.476 345.485 419.712 346.055 418.707 346.461C417.721 346.848 416.551 347.041 415.198 347.041C413.052 347.041 411.408 346.606 410.268 345.736C409.127 344.847 408.557 343.648 408.557 342.14C408.557 341.115 408.827 340.236 409.369 339.501C409.91 338.766 410.674 338.206 411.66 337.819C412.646 337.413 413.825 337.21 415.198 337.21ZM415.198 339.704C414.424 339.704 413.786 339.917 413.284 340.342C412.781 340.767 412.53 341.357 412.53 342.111C412.53 342.865 412.781 343.464 413.284 343.909C413.786 344.334 414.424 344.547 415.198 344.547C415.971 344.547 416.599 344.334 417.083 343.909C417.585 343.464 417.837 342.865 417.837 342.111C417.837 341.357 417.585 340.767 417.083 340.342C416.599 339.917 415.971 339.704 415.198 339.704ZM432.332 352.29C430.804 352.29 429.47 351.99 428.33 351.391C427.208 350.792 426.338 349.931 425.72 348.81C425.101 347.689 424.792 346.335 424.792 344.75C424.792 343.165 425.101 341.811 425.72 340.69C426.338 339.569 427.199 338.708 428.301 338.109C429.422 337.51 430.698 337.21 432.129 337.21C433.598 337.21 434.845 337.51 435.87 338.109C436.894 338.689 437.677 339.491 438.219 340.516C438.76 341.521 439.031 342.672 439.031 343.967C439.031 344.354 439.021 344.721 439.002 345.069C438.982 345.417 438.953 345.726 438.915 345.997H427.344L427.344 343.242H437.175L435.261 343.938C435.261 342.72 434.98 341.782 434.42 341.125C433.878 340.468 433.105 340.139 432.1 340.139C431.365 340.139 430.727 340.313 430.186 340.661C429.664 341.009 429.267 341.531 428.997 342.227C428.726 342.904 428.591 343.764 428.591 344.808C428.591 345.833 428.736 346.683 429.026 347.36C429.335 348.017 429.76 348.51 430.302 348.839C430.862 349.168 431.529 349.332 432.303 349.332C433.153 349.332 433.84 349.168 434.362 348.839C434.884 348.51 435.29 348.056 435.58 347.476L438.741 348.694C438.431 349.448 437.958 350.096 437.32 350.637C436.701 351.178 435.957 351.594 435.087 351.884C434.236 352.155 433.318 352.29 432.332 352.29ZM448.633 352.29C447.163 352.29 445.82 352.029 444.602 351.507C443.403 350.985 442.427 350.25 441.673 349.303L443.964 346.983C444.428 347.679 445.046 348.249 445.82 348.694C446.593 349.139 447.511 349.361 448.575 349.361C449.329 349.361 449.928 349.255 450.373 349.042C450.837 348.81 451.069 348.452 451.069 347.969C451.069 347.66 450.962 347.399 450.75 347.186C450.537 346.954 450.112 346.77 449.474 346.635L446.922 346.113C445.24 345.765 444.041 345.243 443.326 344.547C442.63 343.832 442.282 342.913 442.282 341.792C442.282 340.999 442.514 340.255 442.978 339.559C443.461 338.863 444.176 338.302 445.124 337.877C446.071 337.432 447.25 337.21 448.662 337.21C450.112 337.21 451.368 337.442 452.432 337.906C453.514 338.351 454.365 339.018 454.984 339.907L452.606 342.227C452.18 341.55 451.62 341.038 450.924 340.69C450.247 340.323 449.532 340.139 448.778 340.139C448.236 340.139 447.772 340.197 447.386 340.313C446.999 340.429 446.709 340.593 446.516 340.806C446.322 340.999 446.226 341.251 446.226 341.56C446.226 341.869 446.361 342.14 446.632 342.372C446.902 342.585 447.395 342.768 448.111 342.923L451.069 343.532C452.499 343.822 453.524 344.315 454.143 345.011C454.761 345.688 455.071 346.509 455.071 347.476C455.071 348.404 454.819 349.235 454.317 349.97C453.833 350.685 453.108 351.256 452.142 351.681C451.194 352.087 450.025 352.29 448.633 352.29ZM467.973 352L467.973 331.149H471.946L471.946 339.965C472.41 339.037 473.048 338.351 473.86 337.906C474.672 337.442 475.59 337.21 476.615 337.21C477.62 337.21 478.51 337.403 479.283 337.79C480.076 338.177 480.694 338.766 481.139 339.559C481.603 340.332 481.835 341.309 481.835 342.488L481.835 352H477.862L477.862 343.648C477.862 342.391 477.62 341.531 477.137 341.067C476.654 340.584 476.035 340.342 475.281 340.342C474.72 340.342 474.179 340.477 473.657 340.748C473.154 340.999 472.739 341.425 472.41 342.024C472.101 342.604 471.946 343.377 471.946 344.344L471.946 352H467.973ZM493.091 352.29C491.564 352.29 490.23 351.99 489.089 351.391C487.968 350.792 487.098 349.931 486.479 348.81C485.861 347.689 485.551 346.335 485.551 344.75C485.551 343.165 485.861 341.811 486.479 340.69C487.098 339.569 487.958 338.708 489.06 338.109C490.182 337.51 491.458 337.21 492.888 337.21C494.358 337.21 495.605 337.51 496.629 338.109C497.654 338.689 498.437 339.491 498.978 340.516C499.52 341.521 499.79 342.672 499.79 343.967C499.79 344.354 499.781 344.721 499.761 345.069C499.742 345.417 499.713 345.726 499.674 345.997H488.103L488.103 343.242H497.934L496.02 343.938C496.02 342.72 495.74 341.782 495.179 341.125C494.638 340.468 493.865 340.139 492.859 340.139C492.125 340.139 491.487 340.313 490.945 340.661C490.423 341.009 490.027 341.531 489.756 342.227C489.486 342.904 489.35 343.764 489.35 344.808C489.35 345.833 489.495 346.683 489.785 347.36C490.095 348.017 490.52 348.51 491.061 348.839C491.622 349.168 492.289 349.332 493.062 349.332C493.913 349.332 494.599 349.168 495.121 348.839C495.643 348.51 496.049 348.056 496.339 347.476L499.5 348.694C499.191 349.448 498.717 350.096 498.079 350.637C497.461 351.178 496.716 351.594 495.846 351.884C494.996 352.155 494.077 352.29 493.091 352.29ZM503.592 352L503.592 337.5H507.043L507.304 340.342C507.691 339.337 508.251 338.563 508.986 338.022C509.74 337.481 510.678 337.21 511.799 337.21C512.128 337.21 512.427 337.239 512.698 337.297C512.969 337.355 513.191 337.432 513.365 337.529L512.901 340.864C512.708 340.787 512.466 340.729 512.176 340.69C511.905 340.651 511.548 340.632 511.103 340.632C510.523 340.632 509.962 340.777 509.421 341.067C508.88 341.338 508.435 341.763 508.087 342.343C507.739 342.904 507.565 343.619 507.565 344.489L507.565 352H503.592ZM522.706 352.29C521.179 352.29 519.845 351.99 518.704 351.391C517.583 350.792 516.713 349.931 516.094 348.81C515.476 347.689 515.166 346.335 515.166 344.75C515.166 343.165 515.476 341.811 516.094 340.69C516.713 339.569 517.573 338.708 518.675 338.109C519.797 337.51 521.073 337.21 522.503 337.21C523.973 337.21 525.22 337.51 526.244 338.109C527.269 338.689 528.052 339.491 528.593 340.516C529.135 341.521 529.405 342.672 529.405 343.967C529.405 344.354 529.396 344.721 529.376 345.069C529.357 345.417 529.328 345.726 529.289 345.997H517.718L517.718 343.242H527.549L525.635 343.938C525.635 342.72 525.355 341.782 524.794 341.125C524.253 340.468 523.48 340.139 522.474 340.139C521.74 340.139 521.102 340.313 520.56 340.661C520.038 341.009 519.642 341.531 519.371 342.227C519.101 342.904 518.965 343.764 518.965 344.808C518.965 345.833 519.11 346.683 519.4 347.36C519.71 348.017 520.135 348.51 520.676 348.839C521.237 349.168 521.904 349.332 522.677 349.332C523.528 349.332 524.214 349.168 524.736 348.839C525.258 348.51 525.664 348.056 525.954 347.476L529.115 348.694C528.806 349.448 528.332 350.096 527.694 350.637C527.076 351.178 526.331 351.594 525.461 351.884C524.611 352.155 523.692 352.29 522.706 352.29Z" fill="#2C2C2C"/>
<path d="M318.375 264.1C316.675 255.475 309.1 249 300 249C292.775 249 286.5 253.1 283.375 259.1C275.85 259.9 270 266.275 270 274C270 282.275 276.725 289 285 289H317.5C324.4 289 330 283.4 330 276.5C330 269.9 324.875 264.55 318.375 264.1ZM305 271.5V281.5H295V271.5H287.5L300 259L312.5 271.5H305Z" fill="#FF4242"/>
</svg>
