<svg width="59" height="63" viewBox="0 0 59 63" fill="none" xmlns="http://www.w3.org/2000/svg">
<path d="M58.5117 1.81814C58.0265 0.977727 57.243 0.376578 56.3057 0.125334C55.3683 -0.125787 54.3891 0.00307495 53.5488 0.488323L38.4299 9.21728C37.085 8.81737 35.5854 8.94709 34.2774 9.70229L33.7747 9.99265C31.2491 11.4508 30.3805 14.6921 31.8387 17.2178C31.8783 17.2864 31.9213 17.3517 31.9634 17.4178H27.0369C27.0787 17.3522 27.1198 17.2857 27.1589 17.2178C28.6172 14.6921 27.7487 11.451 25.2229 9.99253L24.7202 9.70229C23.4966 8.99575 22.0713 8.80832 20.7066 9.17388C20.6588 9.18672 20.6121 9.20151 20.5648 9.21557L5.44879 0.488323C4.60826 0.0029527 3.6292 -0.125664 2.69196 0.125334C1.7546 0.376578 0.971159 0.977727 0.486034 1.81814C-0.515638 3.553 0.0809881 5.77935 1.81573 6.78102L16.9319 15.5083C16.9434 15.5562 16.9539 15.6041 16.9666 15.6519C17.1398 16.2987 17.4289 16.8941 17.8139 17.4178H11.9082C11.9041 17.4178 11.9001 17.4178 11.8958 17.4178C10.856 17.4178 9.87801 17.822 9.14115 18.5566C8.40013 19.2953 7.99215 20.2786 7.99215 21.3255C7.99215 22.8649 8.88611 24.1988 10.1818 24.837V55.1744C8.88611 55.8126 7.99215 57.1467 7.99215 58.6859C7.99215 60.8432 9.74719 62.5982 11.9045 62.5982H47.0932C49.2504 62.5982 51.0055 60.8432 51.0055 58.6859C51.0055 57.1465 50.1115 55.8126 48.8158 55.1744V24.837C50.1115 24.1988 51.0055 22.8649 51.0055 21.3255C51.0055 20.2786 50.5974 19.2953 49.8565 18.5566C49.1196 17.8219 48.1419 17.4178 47.1056 17.4178C47.1015 17.4178 47.0973 17.4178 47.0932 17.4178H41.1805C41.6018 16.8438 41.8996 16.1935 42.0628 15.51L57.1818 6.78114C58.0222 6.29589 58.6233 5.51245 58.8746 4.57509C59.1258 3.63773 58.997 2.65855 58.5117 1.81814V1.81814ZM2.60357 3.04073C2.76226 2.76589 3.01839 2.56942 3.32478 2.48726C3.6314 2.40511 3.95148 2.44729 4.22619 2.60598L18.2056 10.6769C17.9367 10.9666 17.6975 11.2876 17.495 11.6383C17.2926 11.989 17.1341 12.3567 17.0177 12.7344L3.03832 4.66336C2.47104 4.33583 2.27603 3.6079 2.60357 3.04073V3.04073ZM21.1563 17.0361L20.6536 16.7459C19.9957 16.366 19.5251 15.7527 19.3284 15.019C19.1318 14.2852 19.2327 13.5187 19.6125 12.8609C20.1388 11.9494 21.0967 11.4395 22.0804 11.4395C22.5624 11.4395 23.0508 11.562 23.4976 11.8199L24.0003 12.1102C25.3584 12.8944 25.8254 14.6372 25.0414 15.9952C24.6615 16.6531 24.0482 17.1237 23.3144 17.3203C23.0872 17.3812 22.8374 17.4134 22.608 17.4177C22.1101 17.4204 21.5989 17.2917 21.1563 17.0361V17.0361ZM46.3706 54.7736H38.1245L46.3706 26.2254V54.7736ZM46.3706 25.2378H29.4988L38.0303 54.7737H20.9674L29.4988 25.2378H12.627H46.3706ZM12.627 26.2254L20.8732 54.7736H12.627V26.2254ZM47.0932 60.153H11.9045C11.0955 60.153 10.4373 59.4949 10.4373 58.6859C10.4373 57.8769 11.0955 57.2188 11.9045 57.2188H47.0932C47.9022 57.2188 48.5603 57.8769 48.5603 58.6859C48.5603 59.4949 47.9023 60.153 47.0932 60.153ZM47.0971 19.8629H47.1016C47.4899 19.8629 47.855 20.0138 48.1302 20.2881C48.4076 20.5647 48.5604 20.933 48.5604 21.3254C48.5604 22.1344 47.9023 22.7925 47.0933 22.7925H11.9046C11.0956 22.7925 10.4375 22.1344 10.4375 21.3254C10.4375 20.933 10.5903 20.5645 10.8677 20.2881C11.1428 20.0138 11.5078 19.8629 11.8998 19.8629H11.9046H47.0971ZM34.9973 12.1102L35.5 11.8198C36.858 11.0356 38.601 11.5028 39.3851 12.8609C40.1691 14.2189 39.7022 15.9617 38.344 16.7458L37.8413 17.0361C36.4833 17.8204 34.7404 17.3532 33.9563 15.9951C33.1722 14.637 33.6393 12.8942 34.9973 12.1102V12.1102ZM56.5128 3.94215C56.4306 4.24853 56.2341 4.50479 55.9593 4.66336L41.9787 12.7351C41.8639 12.3601 41.7069 11.992 41.5027 11.6381C41.2984 11.2844 41.0582 10.9645 40.7908 10.6775L54.7714 2.60586C55.0461 2.44716 55.3665 2.40498 55.6728 2.48714C55.9794 2.56918 56.2355 2.76577 56.3941 3.04061C56.5526 3.31545 56.5949 3.63565 56.5128 3.94215V3.94215Z" fill="white"/>
</svg>
