<svg width="52" height="52" viewBox="0 0 52 52" fill="none" xmlns="http://www.w3.org/2000/svg">
<path d="M11.9825 34.5566L17.4112 39.9852L6.15047 51.2459C4.89014 52.5062 3.76427 52.145 1.79349 50.1742C0.294344 48.6751 -0.777339 47.3164 0.721813 45.8172L11.9825 34.5566ZM42.0719 7.94512C40.9781 9.04088 40.9781 10.817 42.0719 11.9107C42.5816 12.4185 43.4085 12.854 44.2614 13.0707L47.1534 10.1788C47.5327 10.5581 48.0404 11.3629 48.3936 12.1917L49.3589 11.2264C49.7503 10.835 50.3865 10.835 50.7778 11.2264C51.1692 11.6177 51.1692 12.2539 50.7778 12.6453L28.702 34.7211C28.5073 34.9158 28.2504 35.0141 27.9935 35.0141C27.7366 35.0141 27.4798 34.9158 27.2831 34.7211C26.8917 34.3298 26.8917 33.6936 27.2831 33.3022L28.1902 32.3951C27.3834 32.0499 26.6027 31.5603 26.2134 31.185L19.8957 37.5027L14.467 32.074L46.2884 0.252685C47.0089 -0.467791 48.5401 0.433305 50.0373 1.93246C51.5364 3.43161 52.5017 4.89664 51.7251 5.67933L47.2176 10.1888C47.0028 9.31984 46.5593 8.4649 46.0395 7.94512C44.9438 6.84935 43.1677 6.84935 42.0719 7.94512ZM34.2129 26.3724C33.4061 26.0293 32.6274 25.5396 32.2381 25.1623L29.1515 28.2509C28.9368 27.3799 28.4932 26.525 27.9735 26.0052C26.8777 24.9094 25.1016 24.9094 24.0058 26.0052C22.9121 27.1009 22.9121 28.877 24.0058 29.9708C24.5176 30.4826 25.3464 30.916 26.1994 31.1328L29.0933 28.2388C29.4726 28.6182 29.9803 29.4229 30.3336 30.2518L34.2129 26.3724ZM40.2336 20.3517C39.4268 20.0086 38.6501 19.5189 38.2588 19.1436L35.1722 22.2302C34.9574 21.3612 34.5139 20.5063 33.9941 19.9865C32.8984 18.8907 31.1223 18.8907 30.0265 19.9865C28.9327 21.0823 28.9327 22.8584 30.0265 23.9521C30.5383 24.4619 31.3651 24.8974 32.218 25.1141L35.112 22.2202C35.4913 22.5995 35.999 23.4042 36.3522 24.2331L40.2336 20.3517ZM41.1949 16.2095C40.9801 15.3405 40.5366 14.4856 40.0168 13.9658C38.9211 12.87 37.145 12.87 36.0492 13.9658C34.9554 15.0616 34.9554 16.8377 36.0492 17.9314C36.561 18.4412 37.3878 18.8747 38.2387 19.0934L41.1327 16.1995C41.512 16.5788 42.0197 17.3835 42.3729 18.2124L46.2523 14.3331C45.4475 13.9899 44.6688 13.5022 44.2795 13.1249L41.1949 16.2095Z" fill="white"/>
</svg>
