<svg width="62" height="63" viewBox="0 0 62 63" fill="none" xmlns="http://www.w3.org/2000/svg">
<path d="M40.5884 28.4688C39.3026 29.7534 40.247 28.8097 33.3422 35.7107C33.2084 35.8444 33.1435 36.0338 33.1727 36.2206C33.9037 40.9169 30.2702 45.2409 25.4361 45.2409C21.1101 45.2409 17.6098 41.7421 17.6098 37.4146C17.6098 32.5814 21.9304 28.9461 26.6301 29.678C26.8169 29.7071 27.0063 29.6422 27.1399 29.5085C33.871 22.7736 33.0005 23.6443 34.3828 22.2622C34.5389 22.1061 34.5197 21.847 34.3417 21.7165L31.9611 19.9707C28.1597 17.1786 22.8768 17.5791 19.5331 20.9203C17.9456 22.5078 17.4884 23.9482 16.8474 25.552C15.7305 28.3361 13.1578 30.2117 10.2397 30.4754C3.59718 31.0858 -0.828494 37.5347 0.909051 43.9155C1.56935 46.3406 2.85873 48.5628 4.63793 50.342L12.5087 58.2127C14.3308 60.0348 16.5552 61.2935 18.9352 61.9416C25.2823 63.675 31.7635 59.2752 32.3753 52.6098C32.6442 49.6421 34.5314 47.1113 37.2999 46.0032C39.0811 45.2901 40.391 44.8568 41.9304 43.3176C45.2652 39.9828 45.6781 34.7029 42.88 30.8908L41.1341 28.51C41.0036 28.3321 40.7446 28.3129 40.5884 28.4688V28.4688ZM19.6411 49.683C20.2459 50.2859 19.8125 51.3218 18.9628 51.3218C18.7167 51.3218 18.4706 51.2281 18.2833 51.0408L11.81 44.5675C11.4342 44.1929 11.4342 43.5843 11.81 43.2097C12.1845 42.8339 12.7932 42.8339 13.1678 43.2097L19.6411 49.683Z" fill="white"/>
<path d="M21.2595 41.5914C23.5602 43.8921 27.299 43.904 29.6116 41.5914C33.2861 37.909 30.7365 31.5093 25.4362 31.5093C20.2331 31.5093 17.5157 37.8477 21.2595 41.5914Z" fill="white"/>
<path d="M47.2908 12.0659C33.2734 26.089 37.2435 22.1166 29.2903 30.0759C29.1221 30.2442 29.1613 30.5242 29.3669 30.6441C30.5395 31.3288 31.5225 32.3115 32.2075 33.4847C32.3274 33.6901 32.6074 33.7295 32.7757 33.5613C40.4395 25.9031 36.7744 29.5662 50.7866 15.5598C50.9273 15.4192 50.9279 15.1913 50.7867 15.0512C50.1383 14.4075 48.4475 12.7163 47.8015 12.0658C47.6607 11.924 47.432 11.9246 47.2908 12.0659V12.0659Z" fill="white"/>
<path d="M61.7185 10.8422L60.7796 9.90341C61.6676 9.00084 61.9496 7.94208 61.7401 6.89605C61.118 3.77836 61.3214 3.97309 59.7808 2.43243C59.3258 1.97743 58.7519 1.67009 58.1204 1.54283L55.9547 1.11064C54.9157 0.902581 53.854 1.17955 52.9473 2.07107L52.0085 1.13225C51.6327 0.757676 51.0252 0.757676 50.6495 1.13225C50.2749 1.50801 50.2749 2.11549 50.6495 2.49126L51.5883 3.43008C49.0176 6.0008 49.9019 5.11972 49.7102 5.30821L48.7713 4.36939C48.3963 3.99446 47.7882 3.99446 47.4132 4.36939C47.038 4.74456 47.0381 5.35263 47.4132 5.72768L48.4551 6.76963C47.8421 7.85936 47.9433 9.4951 49.0311 10.5829L52.2678 13.8196C53.307 14.8566 54.8765 15.0381 56.0811 14.3957L57.1232 15.4378C57.3107 15.6253 57.5564 15.7191 57.8023 15.7191C58.6504 15.7191 59.0882 14.6864 58.4814 14.0795L57.5426 13.1405C57.5545 13.1285 59.4087 11.2624 59.4208 11.2624L60.3596 12.2012C60.5481 12.3885 60.793 12.4822 61.0391 12.4822C61.8909 12.4822 62.322 11.4477 61.7185 10.8422V10.8422Z" fill="white"/>
</svg>
