<svg width="56" height="56" viewBox="0 0 56 56" fill="none" xmlns="http://www.w3.org/2000/svg">
<path d="M50.3303 0.875H5.99107C3.16551 0.875 0.875 3.16551 0.875 5.99107V50.3303C0.875 53.1559 3.16551 55.4464 5.99107 55.4464H50.3303C53.1559 55.4464 55.4464 53.1559 55.4464 50.3303V5.99107C55.4464 3.16551 53.1559 0.875 50.3303 0.875ZM12.8125 52.0357H5.99107C5.04918 52.0357 4.28571 51.2722 4.28571 50.3303V5.99107C4.28571 5.04918 5.04918 4.28571 5.99107 4.28571H9.40178V29.8661C9.40178 30.8079 10.1652 31.5714 11.1071 31.5714H12.8125V52.0357ZM26.4553 52.0357H16.2232V31.5714H17.9286C18.8704 31.5714 19.6339 30.8079 19.6339 29.8661V4.28571H23.0446V29.8661C23.0446 30.8079 23.8081 31.5714 24.75 31.5714H26.4553V52.0357ZM40.0982 52.0357H29.8661V31.5714H31.5714C32.5133 31.5714 33.2768 30.8079 33.2768 29.8661V4.28571H36.6875V29.8661C36.6875 30.8079 37.4509 31.5714 38.3928 31.5714H40.0982V52.0357ZM52.0357 50.3303C52.0357 51.2722 51.2722 52.0357 50.3303 52.0357H43.5089V31.5714H45.2143C46.1561 31.5714 46.9196 30.8079 46.9196 29.8661V4.28571H50.3303C51.2722 4.28571 52.0357 5.04918 52.0357 5.99107V50.3303Z" fill="white"/>
</svg>
