<svg width="1440" height="601" viewBox="0 0 1440 601" fill="none" xmlns="http://www.w3.org/2000/svg">
<path d="M0 3.77924C0 6.61389 1.53443 9.56664 5.90164 14.8816C13.8098 24.6848 16.5246 30.7084 16.5246 38.7399C16.5246 46.8895 13.6918 60.8265 9.91475 71.6926C8.38033 76.1808 7.08197 80.1966 7.08197 80.5509C7.08197 82.2044 11.4492 74.291 25.3771 47.0076C33.6393 30.7084 40.9574 16.7714 41.6656 15.9446C42.4918 14.8816 48.3934 14.5273 63.9738 14.5273C75.659 14.5273 84.9836 14.8816 84.7476 15.4722C84.1574 16.7714 72.4721 36.4958 49.4557 74.9997C37.8885 94.3698 28.8 110.197 29.2721 110.078C29.7443 110.078 34.1115 103.819 38.9508 96.3777C43.7902 88.8186 49.1016 80.7871 50.6361 78.4249C52.2885 76.0627 61.259 62.7162 70.5836 48.7792C80.0262 34.8422 88.6426 22.0863 89.823 20.5509C91.1213 19.0155 92.0656 17.3619 92.0656 16.7714C92.0656 14.7635 75.1869 7.9131 64.918 5.66901C63.2656 5.31467 58.3082 4.25169 53.7049 3.18869C48.7475 2.1257 36.4721 1.18082 22.7803 0.708374L0 -0.000282288V3.77924Z" fill="#FF4242"/>
<path d="M1434.92 13.2281C1423.59 25.8659 1421.23 33.0706 1423.36 48.6612C1424.42 56.5746 1429.73 74.6454 1433.51 83.5037C1434.1 84.9211 1433.98 85.5116 1433.15 85.2754C1432.45 85.0392 1427.25 75.7085 1421.59 64.7242C1411.08 44.2911 1399.04 21.3777 1396.92 17.8344C1395.86 16.1809 1393.38 16.0628 1375.44 16.5352C1364.22 16.8895 1355.02 17.5982 1355.02 18.0706C1355.02 18.5431 1359.97 27.1651 1365.99 37.0864C1372.13 47.1258 1381.22 62.1258 1386.29 70.6297C1391.37 79.0155 1399.51 92.362 1404.24 100.039C1413.44 115.157 1415.69 120.59 1408.37 110.079C1405.89 106.535 1401.99 100.984 1399.75 97.7951C1397.39 94.488 1389.48 82.7951 1381.93 71.8108C1374.49 60.7085 1363.4 44.4092 1357.26 35.3147C1351.12 26.3384 1345.46 18.6612 1344.63 18.425C1343.1 17.8344 1303.08 36.9683 1303.08 38.2675C1303.08 38.7399 1323.86 59.7636 1349.23 84.9211C1374.49 110.197 1395.86 131.929 1396.56 133.11C1397.74 135.354 1393.38 132.047 1379.8 120.708C1365.88 109.016 1316.54 68.1494 1313 65.3147C1310.99 63.6612 1306.03 59.5273 1301.9 56.1021C1297.89 52.6769 1293.88 49.9604 1293.05 50.1966C1291.87 50.551 1270.98 74.8817 1268.5 79.0155C1268.03 79.8423 1270.86 82.677 1275.7 86.2203C1280.07 89.4092 1294.82 100.275 1308.39 110.433C1322.09 120.472 1341.44 134.645 1351.48 141.968C1368.71 154.606 1375.91 160.984 1366.35 155.315C1363.99 153.897 1360.09 151.535 1357.73 150.236C1355.25 148.819 1351.36 146.456 1349.11 145.039C1346.87 143.622 1335.66 136.89 1324.33 130.275C1313 123.543 1300.72 116.22 1297.18 114.094C1288.56 108.661 1264.96 94.8423 1264.49 94.8423C1263.78 94.8423 1264.37 122.598 1265.08 128.386L1265.9 134.291L1301.19 151.771C1320.55 161.456 1336.13 169.606 1335.9 169.96C1335.3 170.433 1318.31 164.764 1310.75 161.575C1308.87 160.748 1302.49 158.386 1296.59 156.26C1290.81 154.252 1282.54 151.299 1278.3 149.764C1274.05 148.228 1269.44 146.693 1268.03 146.22L1265.31 145.512V161.811V178.228L1275.7 179.645C1281.36 180.354 1290.22 181.299 1295.41 181.771C1313.23 183.307 1309.69 184.488 1287.5 184.488L1265.31 184.606V201.142C1265.31 212.362 1265.78 217.677 1266.61 217.677C1267.32 217.677 1276.64 212.834 1287.27 207.047C1297.89 201.142 1306.86 196.417 1307.1 196.417C1307.45 196.417 1308.28 200.433 1309.1 205.275C1309.81 210.236 1310.87 214.016 1311.23 213.897C1311.7 213.661 1317.6 210.827 1324.33 207.401C1348.41 195.59 1364.93 192.047 1378.15 195.708C1385.35 197.834 1402.11 206.338 1409.31 211.535C1411.55 213.189 1418.4 218.268 1424.42 222.756C1430.44 227.362 1435.51 230.787 1435.75 230.551C1435.99 230.315 1436.46 228.425 1436.81 226.417C1437.64 222.047 1434.22 218.149 1429.49 217.913C1426.31 217.795 1424.42 215.551 1425.25 213.189C1426.19 210.708 1424.66 209.055 1422.89 210.59C1420.17 212.834 1415.8 211.535 1415.45 208.464C1415.21 206.929 1415.57 205.039 1416.28 204.212C1417.1 203.149 1417.1 202.323 1416.16 201.378C1415.09 200.315 1414.5 200.669 1413.56 202.677C1411.91 205.748 1408.72 206.575 1406.36 204.685C1403.65 202.441 1404.24 199.016 1407.78 197.244L1410.96 195.59L1395.62 180C1387.24 171.378 1380.16 163.819 1380.04 163.228C1379.57 162.165 1391.84 148.937 1425.72 113.74L1440 98.9762L1439.65 53.6218L1439.41 8.2675L1434.92 13.2281ZM1367.17 184.016C1369.65 186.378 1368.35 190.394 1364.69 191.338C1362.57 191.811 1361.27 191.456 1360.09 189.921C1358.09 187.086 1358.2 186.378 1360.45 184.134C1362.69 181.771 1364.93 181.771 1367.17 184.016ZM1379.57 185.315C1382.52 190.512 1376.62 195 1372.49 190.748C1370.6 188.858 1370.36 188.031 1371.42 185.905C1373.08 182.953 1378.03 182.598 1379.57 185.315ZM1355.96 188.386C1356.2 190.512 1355.61 191.929 1353.95 192.756C1350.53 194.645 1347.93 193.11 1347.93 189.449C1347.93 185.315 1348.88 184.37 1352.66 184.842C1354.9 185.079 1355.72 186.023 1355.96 188.386ZM1391.02 190.984C1391.02 192.992 1390.19 194.882 1388.89 195.708C1387.12 196.771 1386.29 196.535 1384.52 194.291C1381.46 190.512 1383.23 186.614 1387.83 187.205C1390.43 187.441 1391.02 188.149 1391.02 190.984ZM1344.16 191.929C1344.87 197.48 1337.19 199.252 1335.54 193.937C1334.48 190.748 1337.08 187.913 1340.73 188.386C1343.1 188.622 1343.92 189.449 1344.16 191.929ZM1332.83 194.645C1334.48 198.425 1332.24 201.378 1327.99 200.905C1325.86 200.669 1324.8 199.724 1324.56 197.834C1323.74 191.929 1330.35 189.331 1332.83 194.645ZM1402.7 194.291C1404.59 197.362 1399.63 202.323 1396.56 200.433C1394.32 199.016 1393.38 196.063 1394.44 193.346C1395.38 190.984 1401.05 191.693 1402.7 194.291ZM1321.26 199.016C1323.97 203.504 1317.13 208.228 1314.06 203.976C1312.05 201.26 1312.17 200.551 1314.41 198.189C1316.77 195.945 1319.49 196.299 1321.26 199.016Z" fill="#FF4242"/>
<path d="M108.826 64.488C85.4559 87.9919 70.1116 103.582 53.7051 120.827C41.5477 133.464 43.5543 132.165 73.1805 106.771C82.6231 98.7399 94.5444 88.5824 99.7379 84.2124C130.899 57.7557 137.508 51.8502 137.744 50.6691C137.862 49.9604 136.21 47.9525 134.085 46.1809L130.19 42.9919L108.826 64.488Z" fill="#FF4242"/>
<path d="M142.229 99.2123C132.551 106.653 114.492 120.472 102.098 129.803C75.3047 150.118 73.5343 151.417 74.7146 151.535C75.1867 151.535 77.0752 150.59 78.8457 149.291C81.9146 147.165 91.9474 141.023 129.246 118.11C138.334 112.559 149.665 105.59 154.387 102.638L162.885 97.3226V91.2989C162.885 87.2832 162.413 85.3934 161.469 85.5115C160.642 85.5115 152.026 91.6533 142.229 99.2123Z" fill="#FF4242"/>
<path d="M0 110.787V120.59L21.1279 140.551C32.6951 151.417 42.2557 160.748 42.3738 161.102C42.4918 161.575 32.9311 171.26 21.2459 182.953L0 203.976V289.252V374.409L7.67213 375.236C11.9213 375.708 15.9344 375.708 16.5246 375.354C17.1148 375 16.8787 372.519 15.9344 369.685C15.1082 366.968 13.8098 360.945 12.9836 356.456C12.1574 351.85 10.859 345.354 9.91475 341.811C8.02623 334.606 8.49836 333.189 12.1574 334.016C15.2262 334.842 15.2262 334.606 12.8656 313.346C10.977 295.512 10.741 291.968 11.6852 292.323C12.1574 292.559 20.1836 296.456 29.5082 301.181C46.859 309.685 61.7311 314.527 70.8197 314.527C74.0066 314.527 75.541 315 75.541 316.181C75.541 318.543 78.4918 320.551 80.7344 319.724C81.7967 319.252 82.6229 317.716 82.6229 315.827C82.6229 312.992 83.2131 312.401 88.8787 310.984C95.7246 309.212 115.082 300.708 128.892 293.386C134.675 290.315 138.216 289.016 138.807 289.842C140.223 292.323 137.508 334.134 135.029 346.063L134.321 349.96H140.223C145.652 349.96 146.479 349.606 149.311 345.945C154.505 339.212 155.213 330.472 152.262 312.756C150.846 304.488 149.193 296.338 148.603 294.803C146.951 290.433 147.305 273.543 149.311 263.976C152.144 250.63 149.075 243.661 140.223 243.661C134.321 243.661 133.849 245.197 135.856 255.827C136.682 260.551 137.508 267.519 137.508 271.299V278.268L132.197 281.575C122.046 287.834 97.259 300.118 89.1147 302.834C77.0754 306.968 63.0295 306.732 50.1639 302.244C41.1934 299.055 16.0525 286.771 11.4492 283.228C9.67869 281.929 8.73443 278.031 6.96393 264.212C5.78361 254.645 4.48525 245.787 4.01311 244.488C3.18688 241.89 6.01967 239.173 22.4262 227.244C53.3508 204.803 67.6328 200.197 88.1705 205.866C97.259 208.346 127.003 221.457 129.6 224.055C130.426 224.882 131.489 227.716 131.843 230.315L132.433 234.921H143.41C155.921 234.803 158.4 236.102 160.643 243.779C161.823 247.441 161.587 249.921 159.226 259.252C155.685 273.307 155.803 284.409 159.816 297.992L162.649 308.031L162.767 261.378C162.767 235.748 162.531 213.661 162.177 212.362C161.823 210.708 156.866 207.52 147.423 202.441C139.515 198.425 132.905 195.236 132.669 195.59C132.433 195.827 131.607 199.134 130.898 203.031C130.19 206.811 129.364 210.708 129.128 211.535C128.892 212.48 126.059 211.653 120.157 208.464C103.869 199.96 82.1508 192.874 72.4721 192.874C59.6066 192.874 36.118 205.394 12.2754 224.882C7.43606 228.779 3.18688 231.968 2.95082 231.732C2.71475 231.496 2.24262 229.37 1.77049 227.126C1.18033 223.701 1.53443 222.401 4.01311 219.685C5.66557 217.913 8.02623 216.496 9.32459 216.496C10.977 216.496 11.8033 215.551 12.0393 213.189C12.2754 210.59 12.9836 210 15.9344 209.882C17.941 209.882 20.1836 209.764 21.0098 209.645C22.7803 209.409 22.8984 205.63 21.2459 203.976C20.4197 203.149 21.9541 200.669 26.2033 196.299C29.6262 192.756 38.4787 183.543 45.7967 175.866L59.1344 161.811L55.8295 158.268C47.2131 149.173 34.8197 136.417 18.177 119.409L0 100.866V110.787Z" fill="#FF4242"/>
<path d="M1417.69 142.323L1397.27 162.638L1417.1 181.89C1428.08 192.401 1437.76 201.023 1438.58 201.142C1439.76 201.142 1440 198.898 1439.76 191.929L1439.41 182.716L1426.78 172.913C1419.7 167.48 1414.5 162.52 1414.74 161.811C1415.09 160.984 1420.17 156.614 1425.95 152.126C1431.74 147.52 1437.17 143.268 1437.99 142.677C1438.94 141.85 1439.29 138.661 1438.82 131.811L1438.23 122.126L1417.69 142.323Z" fill="#FF4242"/>
<path d="M154.033 141.378C150.138 143.504 138.452 149.646 128.065 154.842C107.882 165.118 105.167 167.48 120.984 160.866C122.282 160.394 128.42 158.031 134.557 155.669C140.695 153.307 147.895 150.59 150.492 149.409C152.97 148.346 155.449 147.401 155.803 147.401C159.934 146.929 161.705 145.157 161.705 141.378C161.705 139.134 161.587 137.362 161.469 137.48C161.233 137.48 157.928 139.252 154.033 141.378Z" fill="#FF4242"/>
<path d="M0 162.165C0 172.559 0.472131 181.063 1.0623 181.063C1.65246 181.063 2.71475 180.236 3.54098 179.291C4.36721 178.346 9.20656 174.212 14.282 170.197C19.4754 166.181 23.6066 162.519 23.6066 162.047C23.6066 161.22 1.65246 143.267 0.590164 143.267C0.236066 143.267 0 151.771 0 162.165Z" fill="#FF4242"/>
<path d="M148.721 178.819C135.148 180.354 135.266 180.827 149.076 180.945C159.58 181.063 161.705 180.708 161.705 179.291C161.705 177.401 161.705 177.401 148.721 178.819Z" fill="#FF4242"/>
<path d="M60.5506 183.071C58.426 183.898 58.6621 188.976 60.7867 189.803C63.6195 190.866 66.0982 189.331 66.0982 186.378C66.0982 184.252 63.5014 181.654 62.2031 182.362C62.0851 182.362 61.2588 182.717 60.5506 183.071Z" fill="#FF4242"/>
<path d="M71.292 184.016C70.4658 186.142 72.7084 189.331 75.0691 189.331C76.9576 189.331 78.9642 185.787 78.256 183.661C77.4297 181.653 72.1183 181.89 71.292 184.016Z" fill="#FF4242"/>
<path d="M84.0393 184.488C81.0885 186.26 82.859 189.921 86.7541 189.921C89.2328 189.921 90.4131 189.331 90.6492 187.677C91.1213 185.551 89.1147 183.425 86.7541 183.425C86.1639 183.425 84.8655 183.898 84.0393 184.488Z" fill="#FF4242"/>
<path d="M48.6293 187.205C46.7408 189.094 46.8588 191.102 48.8654 192.756C52.4064 195.708 56.7736 190.866 53.5867 187.559C51.3441 185.433 50.5179 185.315 48.6293 187.205Z" fill="#FF4242"/>
<path d="M94.7804 188.858C93.8362 191.22 97.2591 194.646 99.6198 193.701C100.682 193.228 101.508 191.575 101.508 189.921C101.508 187.559 100.918 186.968 98.5575 186.968C96.905 186.968 95.2525 187.795 94.7804 188.858Z" fill="#FF4242"/>
<path d="M107.41 192.165C105.285 194.764 106.82 197.835 110.007 197.362C112.013 197.126 112.722 196.181 112.722 194.055C112.722 190.63 109.653 189.567 107.41 192.165Z" fill="#FF4242"/>
<path d="M37.4166 192.402C36.2363 193.701 36.3543 197.362 37.7707 198.189C40.1313 199.606 43.7904 197.48 43.4363 194.882C43.0822 192.283 39.1871 190.748 37.4166 192.402Z" fill="#FF4242"/>
<path d="M118.505 197.008C117.561 199.488 118.741 202.323 120.748 202.323C123.108 202.323 125.469 199.134 124.643 197.008C123.816 194.764 119.331 194.646 118.505 197.008Z" fill="#FF4242"/>
<path d="M27.5016 197.244C25.2589 198.071 25.613 203.149 27.9737 203.976C30.8065 205.157 33.9934 201.614 32.3409 199.134C30.9245 196.89 29.6262 196.299 27.5016 197.244Z" fill="#FF4242"/>
<path d="M1353.01 207.638C1344.04 210.118 1329.88 215.905 1319.02 221.575C1309.69 226.535 1309.57 226.535 1308.28 232.441C1307.21 237.283 1306.62 238.346 1304.73 237.992C1297.53 237.047 1289.04 237.401 1285.85 238.701C1278.41 241.89 1277.11 250.748 1281.72 267.52C1285.38 280.866 1285.26 281.338 1275.93 316.299C1273.1 327.047 1272.51 341.456 1274.64 347.834C1276.64 353.74 1284.31 360.59 1289.27 360.708C1293.29 360.827 1300.96 360.59 1304.73 360.236C1306.62 360 1307.45 361.299 1308.75 365.905C1314.3 386.338 1324.09 417.874 1326.69 423.779C1327.28 425.079 1329.17 429.803 1330.94 434.409C1339.79 457.441 1357.14 484.96 1368.94 494.409C1372.49 497.362 1372.25 498.307 1367.76 499.134C1365.64 499.606 1356.2 501.142 1346.87 502.795C1337.55 504.449 1329.64 506.102 1329.17 506.575C1328.81 506.929 1331.65 510.236 1335.54 513.779C1341.8 519.449 1343.1 520.157 1346.64 519.567C1351 518.858 1356.67 521.22 1357.85 524.173C1358.2 525.236 1358.56 527.598 1358.56 529.37C1358.56 533.267 1359.62 534.567 1367.76 541.181L1373.9 546.26V523.701C1373.9 507.874 1374.26 501.142 1375.2 501.142C1375.91 501.142 1378.5 502.204 1380.87 503.386C1388.54 507.519 1397.98 511.535 1406.12 514.134C1410.49 515.551 1414.03 517.086 1414.03 517.559C1414.03 518.031 1411.55 520.275 1408.49 522.401C1405.3 524.645 1396.8 530.905 1389.36 536.456C1374.26 547.677 1374.26 546.85 1389.48 550.275C1397.04 552.047 1397.98 552.047 1401.88 550.157C1407.3 547.559 1412.85 548.976 1414.98 553.464C1415.92 555.354 1417.81 556.89 1419.7 557.362C1421.47 557.716 1425.84 558.779 1429.38 559.724C1432.92 560.551 1435.87 561.141 1436.1 560.905C1436.34 560.787 1431.62 551.102 1425.84 539.527C1420.05 527.953 1415.45 518.267 1415.8 517.913C1416.04 517.677 1420.41 518.504 1425.6 519.921C1430.68 521.22 1435.99 522.401 1437.4 522.401H1440V492.874V463.464L1435.63 462.756C1413.21 459.094 1406.48 456.614 1399.63 449.527C1395.62 445.157 1379.8 423.071 1379.8 421.535C1379.8 421.181 1380.63 420.827 1381.57 420.827C1382.52 420.827 1382.99 420.118 1382.75 419.291C1381.57 416.456 1404.47 405.354 1416.63 402.874C1423.12 401.575 1423.59 401.575 1430.68 405.236C1434.69 407.362 1438.47 409.016 1438.94 409.016C1439.53 409.016 1440 401.575 1440 392.48V375.945L1434.45 376.417C1431.27 376.653 1427.61 377.362 1426.07 377.716C1423.83 378.425 1422.41 377.598 1417.93 372.874C1412.14 366.614 1405.42 356.929 1404.12 352.677C1403.53 350.905 1404 348.779 1405.18 346.653C1407.3 343.11 1416.28 336.496 1420.76 335.197C1422.77 334.606 1423.48 333.307 1423.95 329.527C1426.9 305.315 1428.08 293.858 1427.61 293.504C1427.37 293.268 1422.77 295.512 1417.46 298.582C1398.33 309.212 1380.63 315.708 1370.12 315.708C1365.29 315.708 1364.58 316.063 1364.22 318.307C1363.99 320.551 1363.16 321.023 1359.74 321.023C1356.08 321.023 1355.61 320.669 1355.25 317.834C1354.9 315 1354.07 314.291 1348.17 312.638C1339.67 310.157 1333.3 307.441 1315.71 298.937C1308.04 295.157 1301.43 292.086 1301.08 292.086C1300.72 292.086 1300.72 298.819 1301.08 307.086C1301.78 322.441 1302.26 327.401 1304.26 342.638C1304.97 347.362 1305.44 351.496 1305.44 351.732C1305.44 351.85 1303.55 352.441 1301.31 352.795C1289.98 354.921 1282.9 341.811 1285.5 323.268C1286.09 318.779 1287.97 308.504 1289.63 300.472C1292.58 286.653 1292.81 280.275 1290.69 273.189C1290.22 271.535 1289.63 266.22 1289.27 261.378C1288.68 253.582 1288.92 252.165 1291.28 249.212C1293.4 246.496 1294.7 246.023 1299.66 246.023C1306.51 246.023 1306.15 244.606 1303.2 264.685L1301.08 279.094L1308.28 283.582C1317.48 289.37 1338.14 299.291 1347.93 302.716C1352.54 304.37 1359.62 305.669 1365.64 306.023C1374.61 306.496 1376.97 306.142 1386.53 302.834C1398.57 298.819 1416.75 290.079 1424.3 284.645C1428.55 281.575 1429.38 280.394 1429.97 275.669C1430.44 272.716 1431.5 265.157 1432.45 258.897C1435.04 241.299 1435.75 243.071 1421.47 232.323C1396.09 213.307 1380.63 205.866 1367.17 205.984C1362.81 205.984 1356.31 206.811 1353.01 207.638ZM1375.08 233.149C1376.97 236.457 1375.67 240.827 1372.25 243.189C1369.89 244.724 1368.83 244.724 1366.58 243.543C1363.04 241.771 1362.1 240.236 1362.1 236.457C1362.1 232.323 1364.22 230.669 1369.42 230.669C1372.72 230.669 1374.14 231.26 1375.08 233.149ZM1389.36 231.968C1395.5 235.157 1393.5 244.842 1386.65 244.842C1379.45 244.842 1376.14 237.874 1380.98 233.031C1383.58 230.433 1385.94 230.079 1389.36 231.968ZM1358.09 237.165C1360.68 241.063 1359.38 245.787 1355.37 247.323C1351.48 248.74 1348.41 247.795 1346.05 244.252C1344.51 242.008 1344.51 240.945 1345.69 238.701C1347.58 235.157 1349 234.212 1352.89 234.212C1355.02 234.212 1356.79 235.157 1358.09 237.165ZM1405.77 239.882C1410.96 244.134 1408.13 251.929 1401.4 251.929C1398.22 251.929 1393.97 248.031 1393.97 245.079C1393.97 241.417 1397.51 238.11 1401.76 237.874C1402.58 237.756 1404.35 238.701 1405.77 239.882ZM1344.51 247.323C1346.28 249.094 1346.87 250.748 1346.4 253.11L1345.69 256.299L1374.26 255.708C1395.74 255.354 1403.41 254.764 1405.18 253.582C1408.37 251.338 1411.32 251.575 1414.03 254.291C1416.87 257.126 1417.1 261.732 1414.5 264.212C1412.14 266.575 1406.48 266.693 1404.12 264.331C1402.7 262.795 1397.63 262.559 1373.31 262.559H1344.28L1345.57 265.039C1348.52 270.472 1342.51 276.968 1336.37 274.96C1331.41 273.425 1331.06 264.212 1335.78 261.614C1337.78 260.433 1337.78 260.197 1335.31 257.834C1332.12 255 1331.76 249.449 1334.48 246.732C1337.08 244.134 1341.56 244.37 1344.51 247.323ZM1405.77 268.228C1408.72 270.59 1409.31 275.669 1406.95 278.504C1406.12 279.567 1403.53 280.275 1400.93 280.275C1397.04 280.275 1396.09 279.803 1395.15 277.205C1393.5 272.953 1393.61 272.244 1396.92 269.055C1400.34 265.512 1402.23 265.394 1405.77 268.228ZM1358.44 275.787C1360.09 278.74 1360.09 279.212 1357.85 282.283C1354.9 286.299 1350.89 287.126 1347.82 284.291C1344.51 281.338 1344.04 278.268 1346.4 274.96C1349.35 270.827 1355.96 271.299 1358.44 275.787ZM1390.9 275.905C1395.5 279.331 1392.08 288.543 1386.06 288.543C1382.64 288.543 1378.62 284.645 1378.62 281.22C1378.62 275.433 1385.94 272.362 1390.9 275.905ZM1373.9 277.913C1375.2 279.212 1376.26 281.338 1376.26 282.638C1376.26 285.827 1372.13 289.724 1368.71 289.724C1364.81 289.724 1362.1 286.771 1362.1 282.638C1362.1 276.023 1369.18 273.189 1373.9 277.913ZM1359.03 325.866C1361.27 327.992 1361.27 328.228 1359.74 331.181C1357.61 335.079 1351.48 333.307 1351.48 328.701C1351.48 326.456 1353.72 323.976 1355.72 323.976C1356.55 323.976 1358.09 324.803 1359.03 325.866ZM1356.2 338.268C1357.26 340.157 1357.14 341.22 1355.49 342.992C1352.89 345.945 1349.59 345.827 1347.93 342.874C1346.99 341.22 1346.99 339.803 1347.93 338.149C1349.59 334.96 1354.54 335.079 1356.2 338.268ZM1352.42 351.378C1352.89 355.394 1349.23 357.756 1345.57 355.866C1340.97 353.386 1343.69 347.244 1349.11 347.834C1351.36 348.071 1352.18 349.016 1352.42 351.378ZM1347.23 360.118C1348.29 361.063 1349.11 362.716 1349.11 363.543C1349.11 365.079 1346.05 368.858 1344.87 368.858C1340.26 368.858 1337.9 361.771 1341.8 359.527C1344.51 357.874 1345.1 357.874 1347.23 360.118ZM1343.69 371.929C1345.93 374.055 1345.93 374.291 1344.39 377.244C1342.74 380.315 1337.78 380.197 1336.13 377.008C1335.07 375.118 1335.19 374.055 1336.84 372.283C1339.32 369.567 1341.21 369.449 1343.69 371.929ZM1339.44 383.268C1342.74 386.575 1339.55 392.126 1335.07 390.708C1332.12 389.764 1331.06 387.047 1332.59 384.094C1334.01 381.614 1337.31 381.142 1339.44 383.268ZM1336.13 395.433C1337.78 397.441 1336.72 401.456 1334.36 402.401C1330.47 403.819 1327.16 400.157 1328.46 395.905C1329.4 393.189 1334.01 392.953 1336.13 395.433ZM1331.88 406.181C1335.54 409.724 1332.83 414.331 1327.63 413.504C1324.09 413.031 1323.15 408.071 1326.22 405.827C1328.93 403.819 1329.64 403.937 1331.88 406.181Z" fill="#FF4242"/>
<path d="M60.433 233.267C59.6068 234.094 59.0166 236.102 59.0166 237.756C59.0166 241.653 61.0232 243.661 64.9182 243.661C68.8133 243.661 70.8199 241.653 70.8199 237.756C70.8199 233.858 68.8133 231.85 64.9182 231.85C63.2658 231.85 61.2592 232.441 60.433 233.267Z" fill="#FF4242"/>
<path d="M42.9641 235.984C40.7215 239.409 41.6657 243.425 45.2067 244.724C48.8657 246.142 51.9346 244.961 53.2329 241.535C55.8297 234.685 46.9772 229.842 42.9641 235.984Z" fill="#FF4242"/>
<path d="M77.4294 237.283C75.1868 239.409 74.9507 243.779 76.9573 245.787C77.7835 246.614 79.7901 247.205 81.4425 247.205C85.4556 247.205 87.3442 245.197 87.3442 241.063C87.3442 235.984 81.0884 233.504 77.4294 237.283Z" fill="#FF4242"/>
<path d="M27.8559 242.362C23.3706 247.323 28.8001 254.409 34.9378 251.693C37.0624 250.63 37.7706 249.449 37.7706 246.496C37.7706 240.472 31.751 237.992 27.8559 242.362Z" fill="#FF4242"/>
<path d="M90.2952 247.913C88.8788 249.331 88.5247 251.102 88.8788 253.701L89.4689 257.48L74.5968 258.189C47.8034 259.606 31.1607 259.252 29.5083 257.244C27.7378 255.118 21.128 254.882 19.1214 256.89C16.6427 259.37 17.4689 263.504 20.7739 265.748C23.7247 267.638 24.0788 267.638 27.3837 265.748C30.4525 263.976 34.8198 263.74 60.0788 263.74H89.3509L88.7607 267.283C87.8165 273.661 93.246 276.496 98.9116 272.48C102.098 270.236 102.216 267.165 99.1476 264.331C96.0788 261.614 96.1968 259.252 99.3837 255.827C101.862 253.228 101.862 252.756 100.21 249.803C98.0853 245.905 93.246 245.079 90.2952 247.913Z" fill="#FF4242"/>
<path d="M27.1474 272.126C25.1408 275.787 26.6752 280.157 30.3343 280.984C33.9933 281.929 36.59 280.512 37.8884 277.087C40.131 271.063 30.0982 266.457 27.1474 272.126Z" fill="#FF4242"/>
<path d="M77.5475 275.315C75.1869 277.913 74.9508 281.575 76.9574 283.582C79.4361 286.063 84.7475 285.236 86.8721 282.047C88.6426 279.331 88.6426 278.858 86.8721 276.142C84.5115 272.598 80.2623 272.244 77.5475 275.315Z" fill="#FF4242"/>
<path d="M42.2559 279.685C40.4854 283.464 43.6723 288.543 47.8034 288.543C51.9345 288.543 55.1214 283.464 53.3509 279.685C51.4624 275.433 44.1444 275.433 42.2559 279.685Z" fill="#FF4242"/>
<path d="M61.6131 278.622C57.6 281.338 58.4262 287.48 62.9115 289.016C67.2787 290.551 70.1115 288.779 70.5836 284.055C70.8196 281.456 70.2295 280.039 68.2229 278.622C66.8065 277.559 65.2721 276.732 64.918 276.732C64.5639 276.732 63.0295 277.559 61.6131 278.622Z" fill="#FF4242"/>
<path d="M79.9083 325.63C78.6099 328.937 80.3804 331.181 83.6853 330.827C86.046 330.59 86.7542 329.882 86.7542 327.519C86.7542 325.157 86.046 324.449 83.6853 324.212C81.6788 323.976 80.2624 324.567 79.9083 325.63Z" fill="#FF4242"/>
<path d="M84.2755 337.441C83.0952 340.512 84.7476 343.11 87.5804 342.638C89.587 342.401 90.2952 341.456 90.2952 339.331C90.2952 337.205 89.587 336.26 87.5804 336.023C86.046 335.787 84.6296 336.378 84.2755 337.441Z" fill="#FF4242"/>
<path d="M1420.17 338.504C1412.5 342.638 1406.95 347.48 1406.95 350.079C1406.95 353.031 1411.32 361.771 1412.85 361.771C1413.56 361.771 1413.91 362.244 1413.8 362.716C1413.44 363.661 1420.52 372.401 1421.59 372.401C1421.82 372.401 1422.89 367.441 1423.95 361.417C1425.13 355.512 1426.43 348.897 1427.02 347.008C1427.49 345 1428.31 341.693 1428.67 339.567C1429.49 334.842 1427.49 334.606 1420.17 338.504Z" fill="#FF4242"/>
<path d="M20.6558 338.149C21.0099 338.74 21.9541 339.331 22.5443 339.331C23.2525 339.331 23.3705 338.74 23.0164 338.149C22.6623 337.441 21.7181 336.968 21.1279 336.968C20.4197 336.968 20.3017 337.441 20.6558 338.149Z" fill="#FF4242"/>
<path d="M27.1475 340.984C27.1475 341.22 28.0917 342.165 29.2721 342.992C31.0425 344.527 31.1606 344.409 29.6262 342.52C28.0917 340.63 27.1475 340.039 27.1475 340.984Z" fill="#FF4242"/>
<path d="M88.761 347.834C85.8101 350.787 88.761 355.394 92.538 353.976C95.0167 353.031 95.0167 348.071 92.538 347.126C90.1773 346.181 90.4134 346.181 88.761 347.834Z" fill="#FF4242"/>
<path d="M158.4 354.803L153.325 359.646L143.174 359.291C133.141 358.937 132.905 358.937 132.079 361.771C131.607 363.425 129.954 369.449 128.302 375.354C119.213 408.071 110.479 432.401 101.39 450.59C98.9115 455.787 96.7869 460.512 96.7869 461.22C96.7869 462.165 104.105 462.283 121.574 461.811C135.148 461.457 146.597 461.575 146.951 462.165C147.895 463.701 138.216 475.157 135.974 475.157C131.725 475.157 128.656 478.583 128.656 483.307C128.656 486.614 127.357 489.449 123.226 495.118C120.275 499.134 117.325 502.323 116.616 502.086C115.908 501.85 110.951 492.992 105.757 482.48C100.446 471.968 95.8426 463.346 95.3705 463.346C95.0164 463.346 93.2459 465.708 91.5934 468.543C88.1705 474.449 79.5541 485.433 73.0623 492.283L68.459 497.126L78.2557 498.661C83.5672 499.488 93.9541 501.142 101.154 502.205C114.846 504.331 117.561 505.275 114.492 507.047C113.548 507.638 109.652 510.472 105.757 513.425C101.862 516.496 97.6131 518.858 95.9607 518.858C91.5934 518.858 88.5246 520.984 86.6361 525.354C85.5738 527.953 81.6787 531.85 75.3049 536.575L65.5082 544.016L65.1541 522.165L64.918 500.315L54.8852 505.275C49.4557 507.992 40.7213 511.771 35.4098 513.661C30.2164 515.551 25.9672 517.323 25.9672 517.677C25.9672 518.031 28.682 520.394 31.9869 522.992C35.2918 525.59 41.3115 530.315 45.3246 533.622C49.4557 536.811 54.6492 540.827 57.0098 542.48C59.3705 544.134 61.377 545.787 61.377 546.142C61.377 546.496 56.5377 548.031 50.6361 549.567C40.4852 552.165 39.777 552.165 36.5902 550.394C34.8197 549.212 31.9869 548.386 30.4525 548.386C27.5016 548.386 22.4262 552.756 22.4262 555.236C22.4262 555.945 20.4197 556.89 17.941 557.362C15.5803 557.834 11.5672 558.897 8.97049 559.724C6.4918 560.669 4.01311 561.023 3.42295 560.787C2.83279 560.433 6.96393 551.102 12.3934 540.118C17.941 529.134 22.4262 519.567 22.4262 518.74C22.4262 517.913 21.6 517.795 20.4197 518.268C19.2393 518.74 14.1639 520.157 9.20656 521.457L0 523.819V545.551V567.165L4.95738 565.63C23.2525 559.842 22.3082 559.96 25.9672 562.677C30.3344 565.984 34.8197 564.921 37.7705 559.842C39.541 556.771 41.6656 555.472 46.859 553.701C50.6361 552.52 54.5311 551.457 55.4754 551.338C56.4197 551.22 58.6623 550.63 60.4328 550.157C62.6754 549.567 63.7377 549.803 63.7377 550.63C63.7377 551.457 60.1967 558.425 55.9475 566.338C51.6984 574.134 46.2689 584.173 43.9082 588.661C41.6656 593.149 39.1869 596.811 38.4787 596.811C37.7705 596.811 30.3344 591.378 21.8361 584.882C13.3377 578.268 5.07541 571.89 3.30492 570.59L0 568.346V584.527V600.708L22.7803 600C36.5902 599.527 48.6295 598.583 53.7049 597.401C58.3082 596.338 62.7934 595.512 63.7377 595.394C64.682 595.394 66.2164 594.803 67.0426 594.094C67.7508 593.504 68.459 593.268 68.459 593.74C68.459 594.803 84.6295 588.661 93.8361 584.173C108.59 576.85 121.692 567.165 134.203 554.527C140.931 547.795 146.361 541.89 146.361 541.417C146.361 540.945 147.777 538.937 149.666 536.929C151.436 534.921 153.915 531.142 155.213 528.661C156.511 526.181 157.928 523.937 158.282 523.583C159.698 522.52 166.426 508.346 166.426 506.457C166.426 504.449 160.17 504.212 136.918 505.748C129.482 506.22 122.872 506.22 122.4 505.748C121.81 505.394 123.816 501.85 126.767 497.953C131.489 491.693 132.433 490.984 135.62 491.457C138.216 491.811 139.869 491.22 142.111 488.976C145.18 485.905 146.243 480.709 144 479.291C142.111 478.11 142.584 476.811 147.659 470.315C153.443 463.228 152.734 462.756 160.643 477.165C163.239 481.89 165.6 485.787 165.836 485.787C166.426 485.787 165.6 423.779 164.656 403.11C164.42 396.26 164.066 381.496 164.066 370.275C163.948 359.173 163.829 349.96 163.711 349.96C163.593 349.96 161.233 352.205 158.4 354.803ZM119.213 513.189C119.213 521.102 116.38 557.362 115.672 558.189C115.2 558.779 110.597 558.071 105.521 556.653C88.0525 552.047 74.0066 548.386 73.6525 548.386C73.4164 548.386 73.1803 547.677 73.1803 546.85C73.2984 546.142 76.8393 542.716 81.3246 539.291C86.9902 534.921 89.7049 533.504 91.0033 534.331C95.9607 537.52 102.689 533.149 102.689 526.653C102.689 523.464 103.633 521.929 107.174 519.094C109.534 517.205 112.839 514.488 114.492 513.071C118.269 510 119.213 510 119.213 513.189Z" fill="#FF4242"/>
<path d="M30.0982 358.346C29.6261 359.055 29.508 359.764 29.8621 360.118C30.0982 360.472 30.6884 359.882 31.0425 358.819C31.8687 356.811 31.1605 356.457 30.0982 358.346Z" fill="#FF4242"/>
<path d="M92.0654 360.472C91.2392 362.244 91.3572 363.189 92.6556 364.606C95.9605 367.795 100.8 363.425 97.849 359.882C95.9605 357.519 93.4818 357.874 92.0654 360.472Z" fill="#FF4242"/>
<path d="M95.8428 371.457C94.0723 373.228 96.1969 377.126 99.1477 377.126C101.39 377.126 103.397 373.346 102.099 371.22C101.154 369.567 97.6133 369.685 95.8428 371.457Z" fill="#FF4242"/>
<path d="M100.564 382.087C97.3768 385.276 100.21 389.882 104.341 388.228C106.937 387.165 107.528 384.449 105.521 382.441C103.278 380.315 102.452 380.197 100.564 382.087Z" fill="#FF4242"/>
<path d="M103.869 394.134C101.744 396.732 103.279 399.567 106.82 399.567C109.534 399.567 109.888 399.094 109.534 396.378C109.18 392.598 106.111 391.535 103.869 394.134Z" fill="#FF4242"/>
<path d="M10.859 405C9.44262 405.945 8.26229 406.417 8.26229 406.063C8.26229 405.709 6.37377 406.772 4.13115 408.543L0 411.614L0.236066 422.716C0.354098 429.449 0.944262 433.819 1.77049 433.819C3.42295 433.819 32.9311 425.315 50.518 419.764L56.7738 417.874L45.7967 412.205C28.0918 403.346 16.6426 400.866 10.859 405Z" fill="#FF4242"/>
<path d="M107.882 405.945C106.702 409.016 108.354 411.614 111.187 411.142C113.193 410.905 113.902 409.96 113.902 407.834C113.902 405.708 113.193 404.764 111.187 404.527C109.652 404.291 108.236 404.882 107.882 405.945Z" fill="#FF4242"/>
<path d="M34.2295 427.441C22.1902 430.984 9.56066 434.646 6.13771 435.59L0 437.48V449.764C0 459.567 0.354098 462.165 1.65246 462.165C6.25574 462.165 26.2033 457.323 30.3344 455.197C32.9311 453.898 37.4164 450.236 40.1311 447.165C44.6164 441.968 57.8361 422.835 57.8361 421.417C57.8361 420.472 57.718 420.59 34.2295 427.441Z" fill="#FF4242"/>
<path d="M1401.99 426.378C1402.82 426.732 1403.88 426.614 1404.24 426.26C1404.71 425.905 1404 425.551 1402.7 425.669C1401.4 425.669 1401.05 426.023 1401.99 426.378Z" fill="#FF4242"/>
<path d="M1421.12 431.457C1422.06 432.047 1423.48 432.638 1424.07 432.638C1424.77 432.638 1424.42 432.047 1423.48 431.457C1422.53 430.866 1421.23 430.275 1420.52 430.275C1419.93 430.275 1420.17 430.866 1421.12 431.457Z" fill="#FF4242"/>
<path d="M1294.82 464.173C1294.82 465.827 1305.32 476.338 1306.98 476.338C1309.34 476.338 1313.71 481.417 1313.71 484.252C1313.71 487.913 1322.32 497.953 1324.8 497.244C1325.63 497.008 1343.21 465 1343.21 463.701C1343.21 463.464 1332.35 463.346 1319.02 463.346C1305.68 463.346 1294.82 463.701 1294.82 464.173Z" fill="#FF4242"/>
<path d="M1276.88 484.842C1271.33 496.063 1266.96 505.748 1267.32 506.22C1267.67 506.811 1279.48 506.929 1293.64 506.456C1308.16 505.866 1319.61 505.984 1319.96 506.575C1320.31 507.165 1321.14 516.968 1321.97 528.307C1322.68 539.645 1323.5 551.22 1323.86 554.055C1324.45 559.134 1324.56 559.134 1328.22 558.425C1333.06 557.48 1359.5 549.803 1363.16 548.268L1365.99 547.086L1360.8 541.771C1355.96 536.811 1355.25 536.575 1351.24 537.165C1347.34 537.874 1346.28 537.519 1343.09 534.212C1340.14 531.26 1339.55 529.96 1340.03 527.244C1340.62 524.291 1340.03 523.228 1336.37 520.039C1328.1 512.953 1321.38 506.102 1316.3 499.488C1311.46 493.11 1310.99 492.874 1306.86 493.582C1298.71 494.882 1293.29 487.204 1297.18 479.764C1298.24 477.874 1297.53 476.338 1293.4 471.023C1290.57 467.598 1288.09 464.645 1287.74 464.645C1287.38 464.527 1282.54 473.74 1276.88 484.842Z" fill="#FF4242"/>
<path d="M1376.26 551.575C1376.26 552.283 1382.99 565.039 1393.02 583.228C1395.5 587.716 1398.22 592.677 1398.92 594.094C1399.63 595.63 1400.58 596.811 1401.05 596.811C1401.4 596.811 1409.19 590.905 1418.16 583.701C1427.25 576.496 1435.63 570.118 1436.81 569.409C1439.88 567.874 1438.94 567.165 1428.43 564.094C1416.98 560.787 1416.87 560.787 1412.62 564.33C1408.6 567.756 1406.95 567.992 1402.23 565.512C1400.11 564.449 1398.57 562.441 1398.1 560.197C1397.15 555.827 1397.51 556.181 1386.53 553.228C1376.38 550.512 1376.26 550.393 1376.26 551.575Z" fill="#FF4242"/>
</svg>
