<svg width="54" height="55" viewBox="0 0 54 55" fill="none" xmlns="http://www.w3.org/2000/svg">
<path d="M53.7524 9.39965L54 8.7081C52.7416 7.62561 53.2848 6.16406 53.2848 6.16406L49.4747 3.8641L49.0996 4.29386C48.0529 3.67924 46.8285 2.82695 45.5197 1.64119C41.7314 -1.79115 36.4569 0.229299 32.9386 7.0547C32.0725 8.73549 30.3177 11.9986 28.1667 15.957L26.8721 15.2698L24.8526 19.0742L26.1072 19.741C25.6263 20.6228 25.1359 21.5213 24.6381 22.432L23.2127 21.675L21.1932 25.4797L22.5693 26.2103C21.9966 27.2552 21.4237 28.3002 20.8555 29.3352L19.3846 28.5543L17.3651 32.3584L18.7833 33.1114C14.6657 40.5997 11.295 46.7061 11.295 46.7061C11.295 46.7061 10.6184 48.3364 9.60339 47.8501C8.58909 47.3638 8.04837 46.935 9.60339 44.9512C11.1591 42.9692 16.2097 37.1734 16.1194 25.3544C16.1194 25.3544 15.9398 23.9818 18.8251 21.6944L0.620822 23.6013C0.620822 23.6013 2.93535 24.5043 4.30423 25.736C5.93514 27.2027 8.00209 32.523 3.31231 39.0036C-1.37713 45.4857 -1.01615 49.4514 3.94406 52.5001C8.9045 55.5513 15.9389 55.7798 18.464 50.1374C20.9894 44.494 38.1242 5.68197 38.1242 5.68197C38.1242 5.68197 39.4769 1.18253 44.8884 4.00456L47.9427 5.61891L47.513 6.11219L53.7524 9.39965Z" fill="white"/>
</svg>
