<svg width="57" height="57" viewBox="0 0 57 57" fill="none" xmlns="http://www.w3.org/2000/svg">
<path d="M57 55.1515L50.7667 48.9182L37.3616 35.5132L37.4651 35.3839C40.3571 31.6654 40.5975 26.4903 38.1469 22.5237L47.7664 12.9052L48.4875 13.6263C48.8371 13.9758 49.3025 14.1683 49.7976 14.1683C50.2927 14.1683 50.7581 13.9758 51.1076 13.6263L51.1919 13.542L52.546 14.8961L53.9001 13.542L52.546 12.1879L53.9001 10.8338L55.2542 12.1879L56.6083 10.8338L54.9765 9.20197C55.6526 7.49163 55.304 5.46622 53.9221 4.0853L52.523 2.68523C51.6248 1.78696 50.4296 1.29282 49.1588 1.29282C48.5479 1.29282 47.957 1.41348 47.4054 1.63182L45.7736 0L44.4195 1.3541L45.7736 2.70821L44.4195 4.06327L43.0654 2.70821L41.7113 4.06231L43.0654 5.41738L42.982 5.50069C42.259 6.22371 42.259 7.39874 42.982 8.12175L43.7022 8.8419L34.1373 18.4078C32.2967 17.1897 30.1113 16.5241 27.8944 16.5241C25.3672 16.5241 22.975 17.3448 20.9563 18.9163L20.851 19.0034L8.12582 6.2783L6.72383 4.87535L5.36877 6.22946L6.83971 7.70039C6.32449 8.47704 6.04582 9.3868 6.04582 10.3406C6.04582 11.62 6.54475 12.8228 7.45738 13.7345L17.1267 23.1596C17.7942 24.9312 17.0836 27.3349 15.3464 29.074C14.0536 30.3668 12.4199 31.1071 10.8637 31.1071C9.91661 31.108 9.08442 30.8236 8.4562 30.2854L7.84427 29.7606L4.3575 32.645C1.80251 34.6321 0.222405 37.6248 0.0213003 40.8549C-0.133838 43.3658 0.563325 45.8317 1.95382 47.884L6.86843 42.9694L13.639 49.7408L8.71764 54.6612C10.5716 55.9243 12.757 56.6081 15.0476 56.6081C18.5603 56.6081 21.8105 55.0194 23.9556 52.2604L26.7922 48.719L26.2923 48.1176C24.8635 46.3996 25.4093 43.3888 27.5353 41.2628C28.8271 39.971 30.4609 39.2307 32.018 39.2307C32.4509 39.2307 32.8569 39.2997 33.2371 39.4165C33.533 39.7431 33.9658 40.1826 34.6305 40.852L43.3201 49.5962C44.2231 50.5002 45.4259 50.9992 46.7053 50.9992C47.6592 50.9992 48.5689 50.7205 49.3456 50.2053L55.6468 56.5066L57 55.1515ZM7.9611 10.3406C7.9611 9.90488 8.05782 9.48256 8.24073 9.10142L19.3676 20.2283L18.7039 20.777L18.0125 21.3487L8.80287 12.3708C8.26084 11.8297 7.9611 11.1086 7.9611 10.3406ZM12.8719 38.9013C12.3117 39.4615 11.5762 39.7411 10.8407 39.7411C10.1053 39.7411 9.36979 39.4615 8.80957 38.9013C8.43513 38.5269 8.43513 37.9216 8.80957 37.5472C9.18401 37.1728 9.78924 37.1728 10.1637 37.5472C10.5381 37.9216 11.1433 37.9216 11.5178 37.5472L15.5811 33.4849C16.6632 32.4008 18.5574 32.3989 19.6434 33.4849C20.0178 33.8593 20.0178 34.4645 19.6434 34.839C19.2689 35.2134 18.6637 35.2134 18.2893 34.839C17.9254 34.478 17.2962 34.476 16.9361 34.839L12.8719 38.9013ZM23.0296 40.9334L18.9673 44.9957C18.7872 45.1767 18.6867 45.4171 18.6867 45.6728C18.6867 45.9294 18.7863 46.1698 18.9673 46.3489C19.3417 46.7233 19.3417 47.3285 18.9682 47.7039C18.7815 47.8907 18.5354 47.9845 18.2902 47.9845C18.0451 47.9845 17.7999 47.8907 17.6132 47.7049C17.0711 47.1629 16.7714 46.4408 16.7714 45.6728C16.7714 44.9057 17.0711 44.1836 17.6132 43.6416L21.6755 39.5793C22.049 39.2049 22.049 38.5987 21.6755 38.2242C21.301 37.8498 21.301 37.2446 21.6755 36.8701C22.0499 36.4957 22.6551 36.4957 23.0296 36.8701C24.15 37.9906 24.15 39.813 23.0296 40.9334ZM44.6742 48.2431C42.3347 45.8911 36.7871 40.3129 34.9819 38.4866L35.2883 38.1036L36.1569 37.0186L47.9426 48.8043C46.8892 49.3089 45.5217 49.0906 44.6742 48.2431Z" fill="white"/>
<path d="M6.86844 45.6765L3.16812 49.3768C2.28613 50.2588 2.10992 51.5708 2.61556 52.6376L0.280828 54.9723C-0.0936094 55.3468 -0.0936094 55.952 0.280828 56.3264C0.467568 56.5141 0.712724 56.607 0.95788 56.607C1.20304 56.607 1.44819 56.5132 1.63493 56.3264L3.96775 53.9936C4.34889 54.1756 4.7645 54.2809 5.19927 54.2809C5.9673 54.2809 6.68936 53.9812 7.23043 53.4392L10.9308 49.7398L6.86844 45.6765Z" fill="white"/>
</svg>
